<?xml version="1.0" standalone="no"?>
<!DOCTYPE svg PUBLIC "-//W3C//DTD SVG 1.1//EN" "http://www.w3.org/Graphics/SVG/1.1/DTD/svg11.dtd" >
<svg xmlns="http://www.w3.org/2000/svg" xmlns:xlink="http://www.w3.org/1999/xlink" version="1.1">
<metadata></metadata>
<defs>
<font id="nunitobold" horiz-adv-x="1199" >
<font-face units-per-em="2048" ascent="1638" descent="-410" />
<missing-glyph horiz-adv-x="572" />
<glyph horiz-adv-x="0" />
<glyph unicode="&#xd;" horiz-adv-x="682" />
<glyph unicode=" "  horiz-adv-x="572" />
<glyph unicode="&#x09;" horiz-adv-x="572" />
<glyph unicode="&#xa0;" horiz-adv-x="572" />
<glyph unicode="!" horiz-adv-x="783" d="M253 1377q0 -11 1 -16l75 -831q4 -38 26 -58.5t50 -20.5t50 20.5t26 58.5l76 831q1 5 1 16q0 61 -45 94.5t-107 33.5t-107.5 -33.5t-45.5 -94.5zM264 136q0 -59 41 -100t103 -41t103 41.5t41 99.5q0 60 -42 100t-102 40q-63 0 -103.5 -41.5t-40.5 -98.5z" />
<glyph unicode="&#x22;" horiz-adv-x="791" d="M123 1390q0 -39 31 -354q4 -42 25 -63.5t49 -21.5t49 23t25 68l31 346q1 43 -29.5 66t-74.5 23q-43 0 -75 -23.5t-31 -63.5zM451 1390q0 -29 32 -354q4 -42 24.5 -63.5t47.5 -21.5q29 0 50 23t25 68l31 346q1 42 -30 65.5t-74 23.5t-75 -23.5t-31 -63.5z" />
<glyph unicode="#" horiz-adv-x="1244" d="M109 525q0 -39 22.5 -62t61.5 -23h110q-56 -337 -56 -383v-6q0 -41 24 -64.5t57 -23.5t56.5 22.5t29.5 62.5l58 392h231q-56 -345 -56 -392q-1 -39 24 -62t60 -23q32 0 55 22t28 59l59 396h119q41 0 63 22.5t22 58.5q0 38 -23 60.5t-62 22.5h-97l37 252h117q41 0 63 22.5 t22 58.5q0 37 -23 60t-62 23h-95q53 312 53 357q1 40 -23 62.5t-58 22.5q-32 0 -57.5 -21t-30.5 -59l-53 -362h-231q52 306 52 351q1 41 -23 65t-57 24h-2q-32 0 -56.5 -20t-29.5 -58l-54 -362h-133q-40 0 -62.5 -23.5t-22.5 -58.5q0 -37 23 -59.5t62 -22.5h111l-37 -252 h-134q-39 0 -60 -22.5t-22 -56.5zM495 604l36 252h231l-36 -252h-231z" />
<glyph unicode="$" horiz-adv-x="1152" d="M145 949q0 -57 15 -99.5t39 -71t69 -52t89 -38.5t115 -34l156 -40q139 -34 139 -119q0 -48 -32.5 -78.5t-78 -42t-103.5 -11.5q-59 0 -118 16.5t-85.5 29.5t-70.5 38q-27 15 -52 15q-35 0 -57.5 -25t-22.5 -58q0 -41 36 -67q135 -97 327 -113v-199q0 -32 19 -49.5 t45 -17.5q27 0 47.5 18t20.5 49v199q154 15 246 94.5t92 217.5q0 122 -74.5 191t-235.5 109l-154 39q-83 19 -112.5 41.5t-29.5 69.5q0 53 54 78.5t131 25.5q23 0 45.5 -2t45.5 -6.5t39.5 -8t39.5 -11t31.5 -10t29.5 -10.5t22 -8q22 -8 39 -8q34 0 54.5 22.5t20.5 54.5 q0 54 -54 80q-119 59 -243 71v209q0 31 -20.5 49t-47.5 18t-46 -17.5t-19 -49.5v-207q-160 -10 -255.5 -82.5t-95.5 -199.5z" />
<glyph unicode="%" horiz-adv-x="2089" d="M173 1023q0 -194 95.5 -304.5t263.5 -110.5q163 0 262 116t99 299q0 76 -19 145.5t-59 132t-113 100t-170 37.5q-164 0 -261.5 -116.5t-97.5 -298.5zM369 1023q0 269 163 269q164 0 164 -269t-164 -269q-163 0 -163 269zM566 3q0 -28 21 -48t50 -20q37 0 74 70l737 1320 q26 54 26 74q0 27 -20 47t-46 20q-40 0 -64 -43l-753 -1355q-25 -44 -25 -65zM1196 382q0 -194 95.5 -305t264.5 -111q165 0 262.5 117t97.5 299q0 59 -11 115t-37.5 111.5t-66.5 96.5t-103 66.5t-142 25.5q-164 0 -262 -116.5t-98 -298.5zM1393 382q0 270 163 270t163 -270 q0 -269 -163 -269t-163 269z" />
<glyph unicode="&#x26;" horiz-adv-x="1554" d="M80 400q0 -202 153.5 -314t403.5 -112q149 0 254.5 49t194.5 141l146 -153q28 -28 61 -28q45 0 88.5 42t43.5 87q0 29 -23 53l-143 149q73 114 113.5 275.5t40.5 268.5q0 39 -31.5 64t-71.5 25q-90 0 -104 -64q-14 -245 -102 -409l-338 350q254 178 254 396 q0 135 -103.5 208t-261.5 73h-3q-103 0 -193.5 -32t-151.5 -99.5t-61 -158.5q0 -99 47.5 -180t138.5 -172q-82 -45 -139.5 -86t-109 -96t-77.5 -124t-26 -153zM336 426q0 82 63 145.5t176 122.5l372 -396q-43 -53 -124 -89.5t-175 -36.5q-81 0 -150 27t-115.5 86t-46.5 141z M475 1218q0 64 49.5 98t118.5 34q65 0 113.5 -35.5t48.5 -96.5q0 -29 -9.5 -56t-34 -56.5t-38 -44t-52.5 -49t-47 -41.5q-149 140 -149 247z" />
<glyph unicode="'" horiz-adv-x="622" d="M204 1392q0 -57 32 -369q4 -40 23.5 -60.5t47.5 -20.5q29 0 50.5 20.5t25.5 61.5l32 366q1 42 -30 64.5t-75 22.5q-43 0 -75 -22.5t-31 -62.5z" />
<glyph unicode="(" horiz-adv-x="650" d="M151 612q0 -184 51 -374t144 -411q29 -72 102 -72q41 0 68.5 28.5t27.5 73.5q0 21 -14 69q-128 365 -128 689q0 333 131 705q14 42 14 68q0 46 -28.5 74.5t-69.5 28.5q-37 0 -69 -34t-52 -91q-85 -214 -131 -396t-46 -358z" />
<glyph unicode=")" horiz-adv-x="650" d="M108 1389q0 -24 15 -69q130 -371 130 -704q0 -335 -127 -691q-15 -45 -15 -70q0 -44 26.5 -72.5t66.5 -28.5q32 0 61 17.5t44 55.5q93 219 144 409.5t51 375.5q0 174 -46.5 357t-130.5 397q-48 125 -120 125q-40 0 -69.5 -29.5t-29.5 -72.5z" />
<glyph unicode="*" horiz-adv-x="1017" d="M123 1106q0 -28 18 -48t51 -20l203 6l-99 -155q-13 -23 -13 -45q0 -29 20 -49t47 -20q41 0 65 45l92 163l92 -163q24 -43 64 -43q26 0 45.5 19.5t19.5 49.5q0 26 -17 56l-91 142l205 -6q33 0 51 20t18 48t-18 48t-51 20l-203 -6l98 156q13 22 13 44q0 29 -19.5 48.5 t-46.5 19.5q-40 0 -67 -45l-93 -167l-97 174q-21 38 -59 38q-27 0 -47.5 -20t-20.5 -50q0 -22 15 -49l94 -149l-200 6q-33 0 -51 -20t-18 -48z" />
<glyph unicode="+" horiz-adv-x="1308" d="M140 503q0 -46 31.5 -68t75.5 -22h317v-301q0 -49 23.5 -79t66.5 -30q45 0 67 33t22 76v301h318q46 0 77 23.5t31 66.5q0 45 -32.5 67t-75.5 22h-318v303q0 47 -23 79t-66 32q-47 0 -68.5 -33.5t-21.5 -77.5v-303h-317q-47 0 -77 -23t-30 -66z" />
<glyph unicode="," horiz-adv-x="623" d="M120 -285q0 -30 25 -31h90h3q20 0 32 10t21 33l173 492q3 12 3 18q0 35 -37 38h-152q-64 -2 -73 -56l-84 -492q-1 -3 -1 -12z" />
<glyph unicode="-" horiz-adv-x="678" d="M37 533q0 -42 28.5 -70t70.5 -28h401q44 0 74 28t30 70q0 43 -29 70.5t-75 27.5h-396q-46 0 -75 -27.5t-29 -70.5z" />
<glyph unicode="." horiz-adv-x="623" d="M167 137q0 -59 41 -100t103 -41t103 41.5t41 99.5q0 60 -42 100t-102 40q-63 0 -103.5 -41.5t-40.5 -98.5z" />
<glyph unicode="/" horiz-adv-x="771" d="M60 -49q0 -38 27.5 -61t62.5 -23q61 0 82 61l470 1391q9 29 9 50q0 39 -27 62.5t-63 23.5q-29 0 -53 -21t-35 -58l-464 -1374q-9 -32 -9 -51z" />
<glyph unicode="0" horiz-adv-x="1244" d="M81 728q0 -123 16 -229.5t55.5 -205t100 -167.5t155 -110.5t214.5 -41.5t214 41.5t154.5 111t100 168t55.5 205t16 228.5q0 123 -16.5 229t-56 202.5t-100 165t-154.5 109t-213 40.5q-121 0 -215.5 -41t-154.5 -109.5t-99.5 -166t-55.5 -202.5t-16 -227zM365 728 q0 74 3.5 132.5t13 121.5t28 109t46 84t70 57.5t96.5 19.5t96.5 -19.5t70 -57.5t46 -84t28 -109t13 -122t3.5 -132q0 -74 -3.5 -133.5t-13 -123t-28.5 -110.5t-46.5 -85.5t-69.5 -58.5t-96 -20t-96.5 20t-70 58.5t-46 85.5t-28 111t-13 123t-3.5 133z" />
<glyph unicode="1" horiz-adv-x="1231" d="M206 1121q0 -41 28 -72t68 -31q29 0 51 15l194 119l1 -985q0 -80 39 -123.5t100 -43.5t101 44t40 117l-1 1116q0 79 -37.5 122t-96.5 43q-40 -1 -81 -26l-354 -209q-52 -32 -52 -86z" />
<glyph unicode="2" horiz-adv-x="1243" d="M120 140q0 -58 38.5 -99t104.5 -41h712q41 0 64 32.5t23 76.5t-23 75.5t-64 31.5h-554l423 375q239 209 239 442q0 174 -130.5 294t-334.5 120q-123 0 -224 -32.5t-201 -91.5q-52 -31 -52 -83q0 -45 36 -84t77 -39q16 0 29 7q8 4 58 33t72 38.5t72.5 21.5t106.5 12 q95 0 161.5 -59t66.5 -152q0 -111 -127 -235l-518 -515q-55 -55 -55 -128z" />
<glyph unicode="3" horiz-adv-x="1231" d="M160 1310q0 -45 30.5 -84.5t69.5 -39.5q15 0 31 8q117 57 268 57q62 0 113.5 -19t87.5 -64t36 -110q0 -103 -78.5 -156.5t-200.5 -53.5h-79q-41 0 -63 -29.5t-22 -69.5q0 -41 21.5 -69.5t63.5 -28.5h84q130 0 215 -67t85 -177q0 -104 -69 -152.5t-190 -48.5 q-53 0 -110.5 13.5t-82.5 23.5t-72 31q-13 6 -26 6q-39 0 -71 -40.5t-32 -87.5q0 -62 57 -90q166 -83 364 -83q109 0 200.5 25t163 74t112 130t40.5 186q0 142 -66 238t-195 131q111 40 171.5 121t60.5 202q0 180 -140.5 286.5t-356.5 106.5q-110 0 -212.5 -25.5 t-164.5 -64.5q-43 -26 -43 -79z" />
<glyph unicode="4" horiz-adv-x="1231" d="M58 427q0 -53 35 -91.5t93 -38.5h536v-164q0 -65 39 -101.5t95 -36.5q57 0 95.5 37.5t38.5 101.5v163h116q50 0 76 28.5t26 72.5q0 46 -27 74t-75 28h-115v735q0 109 -54 157.5t-145 48.5q-146 0 -228 -136l-489 -812q-17 -32 -17 -66zM327 500l395 680v-680h-395z" />
<glyph unicode="5" horiz-adv-x="1231" d="M157 194q0 -40 27 -64q186 -153 435 -153q144 0 261 57t186.5 167t69.5 253q0 210 -124.5 335t-321.5 125q-54 0 -103.5 -8t-81 -19t-56 -22.5t-35.5 -19.5l-10 -8l2 396h551q48 0 74 29.5t26 74.5t-26 75.5t-70 30.5h-633q-78 0 -113.5 -30t-35.5 -103v-594 q0 -52 53.5 -85t108.5 -33q29 0 43 11q123 92 243 92q106 0 172.5 -65t66.5 -181q0 -125 -66 -191t-191 -66q-159 0 -300 104q-21 17 -47 17q-40 0 -72.5 -40t-32.5 -85z" />
<glyph unicode="6" horiz-adv-x="1231" d="M77 650q0 -115 19 -213.5t61.5 -184t107 -145.5t161 -94.5t217.5 -34.5q238 0 379.5 134.5t141.5 349.5q0 204 -135.5 329.5t-339.5 125.5q-119 0 -207 -41.5t-117 -100.5q0 89 8 157t30 132t59 104.5t98 65t143 24.5q106 0 249 -53q15 -5 25 -5q39 0 67 40.5t28 87.5 q0 63 -49 84q-148 71 -316 71q-146 0 -257 -44t-181 -118.5t-114 -183.5t-61 -226.5t-17 -260.5zM380 448q0 132 69 205t199 73q123 0 184.5 -73t61.5 -199q0 -129 -68 -195t-194 -66q-115 0 -183.5 68.5t-68.5 186.5z" />
<glyph unicode="7" horiz-adv-x="1231" d="M99 1327q0 -50 29.5 -82t83.5 -32h599l-446 -991q-23 -59 -23 -88q0 -58 43.5 -96t100.5 -38q38 0 71 20.5t51 61.5l478 1077q37 93 37 157q0 125 -159 125h-752q-55 0 -84 -33t-29 -81z" />
<glyph unicode="8" horiz-adv-x="1231" d="M82 394q0 -190 143.5 -303.5t388.5 -113.5t390 113.5t145 303.5q0 139 -69.5 230.5t-205.5 126.5q115 26 181.5 112t66.5 210q0 189 -139.5 296.5t-368.5 107.5t-366.5 -108t-137.5 -296q0 -127 65.5 -211t181.5 -111q-132 -29 -203.5 -125.5t-71.5 -231.5zM364 405 q0 117 70 176t182 59q111 0 180.5 -59.5t69.5 -175.5q0 -218 -250 -218q-252 0 -252 218zM379 1077q0 72 33.5 118t84 63t119.5 17q68 0 118.5 -17t84 -63t33.5 -118q0 -106 -61.5 -159t-174.5 -53t-175 53t-62 159z" />
<glyph unicode="9" horiz-adv-x="1231" d="M69 997q0 -205 135.5 -330.5t339.5 -125.5q119 0 207 42t117 100q0 -89 -8 -157t-30 -132t-59 -104.5t-98 -65t-143 -24.5q-102 0 -249 53q-15 5 -25 5q-40 0 -68 -40t-28 -87q0 -64 50 -85q148 -71 316 -71q105 0 192 23t151.5 63.5t114 100t82 129.5t53 155.5t29 173.5 t8.5 188q0 115 -19 213.5t-61.5 184t-107.5 145.5t-161 94.5t-217 34.5q-238 0 -379.5 -134.5t-141.5 -348.5zM339 1005q0 128 68 194t193 66q115 0 184 -68.5t69 -186.5q0 -132 -70 -205t-200 -73q-122 0 -183 73t-61 200z" />
<glyph unicode=":" horiz-adv-x="623" d="M167 137q0 -59 41 -100t103 -41t103 41.5t41 99.5q0 60 -42 100t-102 40q-63 0 -103.5 -41.5t-40.5 -98.5zM167 894q0 -62 41 -101t103 -39q64 0 104 41t40 99q0 59 -41.5 99.5t-102.5 40.5q-63 0 -103.5 -41.5t-40.5 -98.5z" />
<glyph unicode=";" horiz-adv-x="623" d="M136 -185q0 -30 25 -31h90h3q20 0 32 10t21 33l173 492q3 12 3 18q0 35 -37 38h-152q-64 -2 -73 -56l-84 -492q-1 -3 -1 -12zM199 909q0 -61 41.5 -101.5t102.5 -40.5q64 0 104.5 41.5t40.5 100.5t-42 99.5t-103 40.5q-63 0 -103.5 -42t-40.5 -98z" />
<glyph unicode="&#x3c;" horiz-adv-x="1308" d="M118 503q0 -37 20.5 -69.5t54.5 -48.5l834 -358q9 -3 17 -3q30 0 54 38t24 79q0 48 -34 62l-707 299l705 286q44 18 44 67q0 40 -28 77.5t-61 37.5q-6 0 -18 -4l-814 -337q-45 -19 -68 -53t-23 -73z" />
<glyph unicode="=" horiz-adv-x="1308" d="M140 289q0 -37 26.5 -62.5t62.5 -25.5h826q48 0 80.5 21.5t32.5 66.5q0 46 -30.5 68.5t-70.5 22.5h-815q-48 0 -80 -22.5t-32 -68.5zM140 715q0 -38 26 -63.5t63 -25.5h826q48 0 80.5 22.5t32.5 66.5q0 48 -33 69.5t-80 21.5h-802q-49 0 -81 -22.5t-32 -68.5z" />
<glyph unicode="&#x3e;" horiz-adv-x="1308" d="M118 855q0 -49 45 -67l704 -286l-707 -299q-34 -14 -34 -62q0 -41 24.5 -79t54.5 -38q8 0 17 3l833 358q35 15 55 48t20 70q0 39 -22.5 73t-68.5 53l-814 337q-12 4 -18 4q-33 0 -61 -37.5t-28 -77.5z" />
<glyph unicode="?" horiz-adv-x="1051" d="M99 1323q0 -47 26.5 -78t68.5 -31q21 0 105 12.5t127 12.5q95 0 155.5 -40.5t60.5 -135.5q0 -43 -18.5 -83.5t-48.5 -73.5t-66.5 -65.5t-72 -64.5t-65.5 -65t-48 -73t-17 -83l1 -81q2 -50 36.5 -77t81.5 -27q48 0 83.5 28t34.5 76l-1 65q-1 35 28 71.5t73 66.5t95.5 71.5 t95.5 85t73.5 109.5t29.5 142q0 99 -35.5 174.5t-98 120.5t-141.5 67t-173 22q-159 0 -304 -41q-43 -13 -64.5 -42t-21.5 -63zM283 100q0 -59 40.5 -100.5t103.5 -41.5t104 41.5t41 100.5q0 60 -42 100t-103 40q-64 0 -104 -41.5t-40 -98.5z" />
<glyph unicode="@" horiz-adv-x="1638" d="M48 728q0 -175 58.5 -318.5t160.5 -239t241 -147t301 -51.5q151 0 313 45q49 15 49 64q0 26 -18 46t-49 20q-12 0 -24 -3q-122 -38 -264 -38q-99 2 -188.5 27t-166.5 75t-133 121.5t-88 171t-32 218.5q0 120 39.5 226.5t107.5 184t155.5 134t186 84.5t198.5 28 q103 0 194 -32t163 -93.5t113.5 -162.5t41.5 -229q0 -110 -40 -210.5t-103 -160.5t-128 -60q-48 0 -48 51q0 43 26 132l129 426q6 24 6 36q0 31 -20.5 48t-50.5 17q-61 0 -80 -59l-9 -27q-35 64 -97 96.5t-138 32.5q-103 0 -194.5 -50t-152.5 -129.5t-96.5 -179 t-35.5 -198.5q0 -140 83.5 -236t221.5 -96q169 0 268 137q3 -62 50 -95t105 -33q80 0 161.5 44.5t147.5 119.5t108 184.5t42 229.5q0 126 -36.5 231.5t-99.5 178.5t-149 123.5t-182.5 74t-201.5 23.5q-124 0 -245.5 -32.5t-229.5 -99t-190.5 -158.5t-131 -219.5 t-48.5 -272.5zM566 637q0 95 36 185.5t105.5 151.5t153.5 61q39 0 72.5 -11.5t54 -27.5t35.5 -32t21 -28l6 -11l-91 -330q-22 -69 -86.5 -114.5t-147.5 -45.5q-159 0 -159 202z" />
<glyph unicode="A" horiz-adv-x="1468" d="M59 121q0 -55 42 -91t96 -36q43 0 78 24.5t52 73.5l90 240h638l90 -240q17 -49 52 -73.5t78 -24.5q54 0 96 36t42 91q0 25 -10 51l-439 1099q-42 111 -96.5 149t-131.5 38t-131.5 -38t-96.5 -149l-439 -1099q-10 -26 -10 -51zM489 525l247 659l247 -659h-494z" />
<glyph unicode="B" horiz-adv-x="1390" d="M168 166q0 -83 40.5 -124.5t109.5 -41.5h459q125 0 226.5 33t164.5 88.5t96.5 124t33.5 143.5q0 154 -87.5 246t-241.5 114v4q132 24 200 112t68 221q0 356 -514 356h-405q-63 0 -106.5 -39t-43.5 -103v-1134zM452 211v428h193q75 0 126 -4.5t98.5 -17.5t75 -36.5 t43.5 -62.5t16 -95q0 -67 -18.5 -109.5t-59.5 -65t-91 -30t-129 -7.5h-254zM452 836v396h248q52 0 88 -3.5t71 -14.5t56 -30.5t33.5 -52.5t12.5 -80q0 -120 -66 -167.5t-221 -47.5h-222z" />
<glyph unicode="C" horiz-adv-x="1364" d="M108 720q0 -223 89.5 -393.5t245 -261.5t351.5 -91q252 0 427 117q56 39 56 101q0 44 -28.5 78t-69.5 34q-21 0 -42 -11q-160 -87 -298 -87q-208 0 -318.5 135.5t-110.5 385.5q0 263 110 393t313 130q39 0 75 -5t68 -14.5t52.5 -17t49 -20.5t36.5 -16q21 -8 38 -8 q45 0 78 36t33 82q0 66 -69 104q-184 92 -375 92q-152 0 -282.5 -53.5t-225.5 -150.5t-149 -241t-54 -318z" />
<glyph unicode="D" horiz-adv-x="1537" d="M168 168q0 -69 40 -118.5t103 -49.5h356q366 0 565 184t199 530q0 355 -199 541.5t-588 186.5h-318q-73 0 -115.5 -45t-42.5 -124v-1105zM454 221v999h202q167 0 270 -47.5t155 -158t52 -294.5q0 -267 -101.5 -383t-354.5 -116h-223z" />
<glyph unicode="E" horiz-adv-x="1256" d="M168 161q0 -63 41 -112t100 -49h741q48 0 76.5 33.5t28.5 78.5t-28.5 79t-76.5 34h-597v401h535q49 0 78.5 33t29.5 78t-29 78t-79 33h-535v368h574q49 0 78 34t29 79t-29 79t-78 34h-711q-71 0 -109.5 -47.5t-38.5 -121.5v-1112z" />
<glyph unicode="F" horiz-adv-x="1173" d="M167 149q0 -67 41.5 -108t100.5 -41t102 41t43 108v481h511q49 0 77 32.5t28 78.5q0 45 -28.5 78t-76.5 33h-511v364h540q48 0 76.5 34t28.5 79t-28.5 79t-76.5 34h-676q-63 0 -107 -40.5t-44 -107.5v-1145z" />
<glyph unicode="G" horiz-adv-x="1499" d="M108 728q0 -243 91 -414t254 -255.5t385 -84.5q151 0 419 59q75 18 106.5 60t31.5 133v420q0 135 -109 135h-387q-44 0 -68.5 -31.5t-24.5 -71.5q0 -43 26 -72.5t71 -29.5h209v-341q-132 -31 -260 -31q-441 0 -441 525q0 121 25 215t78 164.5t141 108t207 37.5 q141 0 349 -64q15 -8 34 -8q44 0 72 35.5t28 80.5q0 28 -16 54.5t-47 42.5q-184 88 -431 88q-183 0 -327 -59t-234 -163t-136 -239t-46 -294z" />
<glyph unicode="H" horiz-adv-x="1531" d="M168 150q0 -67 42.5 -108t100.5 -41q59 0 101.5 41t42.5 108v480h620v-480q0 -67 43 -108t101 -41q59 0 101 41t42 108v1142q0 67 -42 108t-100 41q-59 0 -102 -41t-43 -108v-428h-620v428q0 67 -42.5 108t-100.5 41q-59 0 -101.5 -41t-42.5 -108v-1142z" />
<glyph unicode="I" horiz-adv-x="647" d="M181 150q0 -67 42 -108t100 -41q59 0 102 41t43 108v1145q0 67 -43 108t-101 41t-100.5 -41t-42.5 -108v-1145z" />
<glyph unicode="J" horiz-adv-x="1081" d="M69 162q0 -74 63 -110q72 -44 142.5 -64t183.5 -20q105 0 190.5 28.5t150 86t100.5 151.5t36 218v842q0 67 -42.5 108t-100.5 41q-59 0 -101.5 -41t-42.5 -108v-820q0 -142 -50 -200t-161 -58q-84 0 -208 59q-26 17 -52 17q-46 0 -77 -39.5t-31 -90.5z" />
<glyph unicode="K" horiz-adv-x="1358" d="M170 147q0 -66 42 -106.5t101 -40.5q58 0 101 41t43 106v564l534 -618q25 -31 40 -47t39 -30.5t47 -14.5h2q55 0 98.5 39t43.5 93q0 53 -39 106l-469 523l422 457q39 47 39 97q0 52 -41 88.5t-93 36.5q-54 0 -117 -78l-506 -575v507q0 66 -43 107t-101 41t-100.5 -41 t-42.5 -107v-1148z" />
<glyph unicode="L" horiz-adv-x="1141" d="M168 175q0 -72 41 -123.5t105 -51.5h706q49 0 78.5 34t29.5 79q0 46 -29.5 80.5t-78.5 34.5h-564l-1 1064q0 67 -42 108t-100 41q-59 0 -102 -41t-43 -108v-1117z" />
<glyph unicode="M" horiz-adv-x="1941" d="M168 1215l1 -1096q0 -50 38.5 -77.5t91.5 -27.5t91 27.5t38 77.5v970l371 -897q52 -138 164 -138v349l-348 831q-33 85 -96 127.5t-136 42.5q-87 0 -151 -53t-64 -136zM964 54q111 0 165 138l370 897v-970q0 -50 38.5 -77.5t91.5 -27.5t91.5 27.5t38.5 77.5v1096 q0 83 -64 136t-150 53q-73 0 -136 -42.5t-96 -127.5l-349 -831v-349z" />
<glyph unicode="N" horiz-adv-x="1568" d="M164 126q0 -57 38.5 -91.5t89.5 -34.5q52 0 91 35t39 91v886l653 -904q33 -47 83 -77.5t93 -30.5q68 0 110 54.5t42 140.5v1121q0 57 -38.5 92t-89.5 35q-52 0 -90.5 -35.5t-38.5 -91.5v-886l-658 911q-31 47 -79.5 74t-93.5 27q-64 0 -107.5 -46.5t-43.5 -126.5v-1143z " />
<glyph unicode="O" horiz-adv-x="1610" d="M104 728q0 -352 183 -553t518 -201q337 0 519 201t182 553t-182 553.5t-519 201.5q-335 0 -518 -201.5t-183 -553.5zM406 728q0 253 99 390.5t300 137.5q202 0 300.5 -137t98.5 -391q0 -255 -99 -391.5t-300 -136.5q-202 0 -300.5 136.5t-98.5 391.5z" />
<glyph unicode="P" horiz-adv-x="1318" d="M168 148q0 -67 43 -108t101 -41q59 0 101.5 41t42.5 108v425h279q547 0 547 436q0 119 -37 204.5t-108.5 135t-165 72t-217.5 22.5h-430q-74 0 -115 -50t-41 -126v-1119zM456 781v443h267q70 0 116.5 -8t85 -30t56.5 -66t18 -111q0 -69 -18 -114t-56.5 -69.5t-87 -34.5 t-121.5 -10h-260z" />
<glyph unicode="Q" horiz-adv-x="1610" d="M104 728q0 -352 183 -553t518 -201q337 0 519 201t182 553t-182 553.5t-519 201.5q-335 0 -518 -201.5t-183 -553.5zM406 728q0 253 99 390.5t300 137.5q202 0 300.5 -137t98.5 -391q0 -255 -99 -391.5t-300 -136.5q-202 0 -300.5 136.5t-98.5 391.5zM725 47l492 -256 q25 -14 53 -14q40 0 69.5 31.5t29.5 75.5q0 56 -62 90l-268 155z" />
<glyph unicode="R" horiz-adv-x="1416" d="M168 149q0 -69 42 -108.5t101 -39.5t101.5 39t42.5 109v469h262h4q70 0 115.5 -13t73.5 -43.5t41 -72.5t20 -109l25 -231q7 -73 50 -110.5t103 -37.5q58 0 96.5 38t38.5 106q0 17 -1 26l-28 236q-16 142 -84.5 224.5t-207.5 109.5v4q163 26 244 114.5t81 216.5 q0 367 -527 367h-441q-63 0 -107.5 -41.5t-44.5 -105.5v-1147zM454 831v396h244h21q36 0 59 -1t56 -4.5t53.5 -11t44.5 -21.5t37.5 -34t22.5 -50.5t9 -69.5q0 -41 -11 -73t-28 -53t-45.5 -36t-55 -23t-65 -12.5t-67 -5.5t-70.5 -1h-205z" />
<glyph unicode="S" horiz-adv-x="1320" d="M116 178q0 -37 23 -54q193 -150 519 -150q262 0 417.5 117.5t155.5 319.5q0 87 -26 153.5t-80.5 115.5t-123 83t-168.5 66q-5 2 -146 43t-146 43q-75 25 -111.5 64.5t-36.5 102.5q0 49 24 84t67 54t93.5 27.5t112.5 8.5q187 0 348 -92q26 -14 48 -14q42 0 72 36.5 t30 81.5q0 44 -31 72q-72 62 -207 102.5t-278 40.5q-245 0 -399.5 -112t-154.5 -303q0 -148 75.5 -234.5t246.5 -145.5l330 -110q93 -30 137 -73t44 -119q0 -92 -81.5 -139t-212.5 -47q-205 0 -392 112q-17 10 -35 10q-43 0 -78.5 -47.5t-35.5 -96.5z" />
<glyph unicode="T" horiz-adv-x="1203" d="M22 1328q0 -46 30 -79.5t81 -33.5h326v-1066q0 -67 42.5 -108.5t100.5 -41.5q59 0 101.5 41.5t42.5 108.5v1066h325q50 0 80 34t30 80q0 45 -30.5 79.5t-79.5 34.5h-938q-50 0 -80.5 -34.5t-30.5 -80.5z" />
<glyph unicode="U" horiz-adv-x="1516" d="M162 498q0 -129 46 -230.5t128 -165t188.5 -96t232.5 -32.5t233.5 33t189.5 96.5t128.5 164.5t46.5 230v801q0 67 -42.5 108t-100.5 41q-59 0 -101.5 -41t-42.5 -108v-794q0 -78 -26.5 -138.5t-71.5 -95.5t-99 -53t-114 -18t-113.5 18t-97.5 53t-70.5 95.5t-26.5 138.5 v794q0 67 -42.5 108t-101.5 41t-101 -41t-42 -108v-801z" />
<glyph unicode="V" horiz-adv-x="1382" d="M68 1320q0 -24 9 -51l365 -1034q45 -141 99.5 -193.5t151.5 -52.5t151.5 52.5t99.5 193.5l365 1034q9 27 9 51q0 58 -41.5 94.5t-96.5 36.5q-46 0 -83.5 -28t-54.5 -83l-349 -1044l-349 1044q-17 55 -54.5 83t-83.5 28q-55 0 -96.5 -36.5t-41.5 -94.5z" />
<glyph unicode="W" horiz-adv-x="2094" d="M39 1315q0 -16 5 -38l296 -1128q19 -72 76.5 -112t127.5 -40q71 0 130 41t80 118l291 976l291 -976q21 -77 80 -118t130 -41q70 0 127 40t76 112l297 1128q5 22 5 37q0 58 -42 94.5t-97 36.5q-45 0 -80.5 -27.5t-47.5 -80.5l-256 -1047l-296 989q-24 86 -69.5 125 t-117.5 39t-117.5 -39t-69.5 -125l-297 -989l-255 1047q-12 53 -47.5 80.5t-80.5 27.5q-55 0 -97 -36.5t-42 -93.5z" />
<glyph unicode="X" horiz-adv-x="1332" d="M61 113q0 -50 35.5 -83.5t84.5 -33.5q68 0 115 64l362 465l361 -474q46 -64 114 -64q54 0 96 38.5t42 92.5q0 43 -30 83l-400 528l414 530q27 36 27 75q0 47 -34 81.5t-81 34.5q-68 0 -121 -73l-353 -453l-350 461q-47 65 -113 65q-54 0 -95 -40.5t-41 -95.5 q0 -44 28 -83l388 -511l-413 -511q-36 -49 -36 -96z" />
<glyph unicode="Y" horiz-adv-x="1307" d="M69 1304q0 -37 20 -71l417 -659v-428q0 -69 42.5 -107.5t101.5 -38.5t101 38.5t42 107.5v437l423 674q22 37 22 71q0 47 -36 79t-83 32q-73 0 -112 -70l-343 -565l-330 550q-48 85 -127 85q-55 0 -96.5 -40t-41.5 -95z" />
<glyph unicode="Z" horiz-adv-x="1203" d="M79 113q0 -48 34 -80.5t98 -32.5h836q48 0 76.5 34t28.5 79q0 46 -28 79t-77 33h-623l698 1005q34 51 34 101q0 51 -34.5 81.5t-91.5 30.5h-833q-48 0 -76.5 -33.5t-28.5 -79.5q0 -45 28.5 -79.5t76.5 -34.5h610l-695 -1002q-33 -53 -33 -101z" />
<glyph unicode="[" horiz-adv-x="713" d="M171 -94q0 -63 33.5 -98.5t89.5 -35.5h224q46 2 70.5 28.5t24.5 66.5t-25 66t-70 26h-111v1297h111q45 0 70 26.5t25 66.5q0 39 -24 66t-66 27h-229q-53 0 -88 -34.5t-35 -87.5v-1414z" />
<glyph unicode="\" horiz-adv-x="635" d="M-9 1419q0 -15 6 -35l470 -1390q26 -77 86 -77q35 0 62 23t27 61q0 13 -7 41l-465 1382q-12 36 -35.5 57.5t-53.5 21.5q-37 0 -63.5 -22.5t-26.5 -61.5z" />
<glyph unicode="]" horiz-adv-x="713" d="M99 -133q0 -38 23.5 -65t66.5 -30h229q53 0 88 34t35 86v1414q0 63 -34 99.5t-89 36.5h-224q-45 0 -70 -26.5t-25 -66.5t25 -66.5t70 -26.5h111v-1297h-111q-45 0 -70 -26t-25 -66z" />
<glyph unicode="^" horiz-adv-x="1308" d="M169 609q0 -39 26.5 -63.5t63.5 -24.5q56 0 96 84l308 618l308 -618q43 -82 96 -82q37 0 63.5 23.5t26.5 61.5q0 19 -22 70l-342 669q-51 107 -129 107q-77 0 -130 -107l-343 -669q-22 -51 -22 -69z" />
<glyph unicode="_" horiz-adv-x="1024" d="M0 -190q0 -27 16 -46t45 -19h893q33 0 51 18t18 47q0 27 -16.5 46.5t-46.5 19.5h-893q-32 0 -49.5 -18.5t-17.5 -47.5z" />
<glyph unicode="`" horiz-adv-x="569" d="M55 1535q0 -35 29 -60l305 -251q30 -28 62 -28q23 0 38.5 18t15.5 42q0 16 -19 44l-223 287q-42 62 -89 62q-44 0 -81.5 -35t-37.5 -79z" />
<glyph unicode="a" horiz-adv-x="1078" d="M70 275q0 -135 97.5 -210.5t249.5 -76.5q116 0 187.5 47.5t103.5 123.5v-33q0 -60 35.5 -93t84.5 -33t84 33t35 93v508q0 102 -30.5 177t-86.5 119t-129 65t-165 21q-203 0 -369 -78q-44 -21 -44 -70q0 -37 24.5 -66.5t59.5 -29.5q17 0 28 5q1 0 22 8.5t27 10.5t27 9.5 t32 10.5t32 9t36 8.5t35 6t39.5 5t38.5 1.5q88 0 132.5 -43.5t44.5 -137.5v-77q-102 0 -174 -2.5t-142.5 -10.5t-116.5 -22.5t-87 -37.5t-63.5 -56t-35 -78.5t-12.5 -105.5zM300 289q0 46 14 75.5t39 48t77.5 27t111 11.5t158.5 3v-29q0 -121 -77 -200t-175 -79 q-67 0 -107.5 36.5t-40.5 106.5z" />
<glyph unicode="b" horiz-adv-x="1226" d="M132 142q0 -65 37 -103.5t91 -38.5q56 0 89.5 31.5t33.5 92.5v35q95 -173 330 -173q133 0 232.5 69t150 186.5t50.5 264.5q0 236 -121.5 372t-325.5 136q-218 0 -316 -160v453q0 65 -35.5 100.5t-91.5 35.5q-54 0 -89 -36t-35 -100v-1165zM384 502q0 97 25.5 171.5 t86 122.5t150.5 48q55 0 99 -19.5t72 -51.5t46.5 -77t26.5 -92t8 -100q0 -48 -7 -94.5t-25 -93.5t-45.5 -82.5t-71.5 -57.5t-100 -22q-144 0 -204.5 88t-60.5 260z" />
<glyph unicode="c" horiz-adv-x="981" d="M80 503q0 -226 140 -370.5t361 -144.5q110 0 190 25.5t122 63.5q40 34 40 80q0 34 -22 58.5t-54 24.5q-26 0 -51 -17q-78 -52 -201 -52q-127 0 -199.5 91.5t-72.5 242.5t73.5 241t203.5 90q86 0 176 -45q23 -13 47 -13q34 0 57.5 24t23.5 57q0 46 -45 78q-110 80 -285 80 q-147 0 -263 -69.5t-178.5 -186.5t-62.5 -258z" />
<glyph unicode="d" horiz-adv-x="1226" d="M80 506q0 -147 50.5 -264.5t150 -186.5t232.5 -69q235 0 331 173v-35q0 -61 33 -92.5t90 -31.5q54 0 90.5 38.5t36.5 103.5v1165q0 65 -34.5 100.5t-89.5 35.5q-56 0 -91.5 -35.5t-35.5 -100.5v-453q-97 160 -316 160q-203 0 -325 -136t-122 -372zM328 504q0 67 13.5 125 t41.5 107.5t78.5 78.5t118.5 29q90 0 150.5 -48t86 -122.5t25.5 -171.5q0 -172 -60.5 -260t-203.5 -88q-69 0 -120 32.5t-78 86.5t-39.5 111.5t-12.5 119.5z" />
<glyph unicode="e" horiz-adv-x="1099" d="M80 511q0 -247 142.5 -385t379.5 -138q211 0 369 133q32 28 32 68q0 35 -24 63t-55 28q-21 0 -39 -14q-141 -101 -265 -101q-273 0 -289 282h632q36 0 54 24t18 63q-1 99 -29 184t-82.5 153t-144 106.5t-205.5 38.5q-151 0 -265 -70t-171.5 -183.5t-57.5 -251.5zM333 588 q9 109 72.5 186t175.5 77q115 0 173.5 -74t66.5 -189h-488z" />
<glyph unicode="f" horiz-adv-x="729" d="M28 916q0 -38 23 -59t67 -22h98v-695q0 -66 36 -103t90 -37q55 0 90.5 36.5t35.5 103.5v695h133q44 0 67 22t23 59q0 35 -23 58t-64 23h-136v73q0 83 14 125t39 54t75 12h80q40 0 61.5 27.5t21.5 66.5q0 40 -22.5 70t-60.5 30h-123q-337 0 -337 -358v-100h-101 q-43 0 -65 -23.5t-22 -57.5z" />
<glyph unicode="g" horiz-adv-x="1218" d="M78 495q0 -229 130 -362.5t346 -133.5q213 0 298 161v-147q0 -142 -78 -211.5t-218 -69.5q-40 0 -81.5 7t-62.5 13t-66 21.5t-54 18.5q-16 6 -32 6q-35 0 -58 -26t-23 -60q0 -48 46 -76q54 -33 151.5 -55.5t204.5 -22.5q236 0 373.5 124t137.5 361v820q0 66 -33.5 103 t-85.5 37q-46 0 -78.5 -27.5t-37.5 -78.5v-46q-50 80 -119 122t-190 42q-217 0 -343.5 -144.5t-126.5 -375.5zM334 502q0 57 9 106.5t29 94t50 76t75 50t101 18.5q254 0 254 -347q0 -171 -69 -251.5t-184 -82.5q-114 2 -189.5 86.5t-75.5 249.5z" />
<glyph unicode="h" horiz-adv-x="1196" d="M132 1305l1 -1167q0 -65 35 -101.5t90 -36.5q56 0 91 36t35 102v430q0 124 74 201t174 77q82 0 134.5 -54.5t52.5 -157.5v-496q0 -65 35.5 -101.5t89.5 -36.5q55 0 90.5 36.5t35.5 101.5v498q0 97 -30 172t-81.5 119.5t-116 67t-138.5 22.5q-219 0 -320 -150v438 q0 65 -35.5 101t-91.5 36q-55 0 -90 -36t-35 -101z" />
<glyph unicode="i" horiz-adv-x="511" d="M117 1342q0 -62 40.5 -100.5t105.5 -38.5t105.5 38.5t40.5 100.5t-40 100t-105 38q-66 0 -106.5 -38t-40.5 -100zM138 140q0 -67 35 -103.5t90 -36.5t90.5 37t35.5 103v722q0 67 -35.5 104t-90.5 37t-90 -37t-35 -104v-722z" />
<glyph unicode="j" horiz-adv-x="535" d="M-70 -289q0 -38 22.5 -66t63.5 -28q84 0 145.5 9.5t104 31t69 49.5t41.5 73t20 93.5t5 118.5v874q0 66 -35 101.5t-91 35.5q-55 0 -90.5 -36.5t-35.5 -102.5v-885q0 -81 -11 -117t-38.5 -48t-91.5 -13q-37 0 -57.5 -26.5t-20.5 -63.5zM119 1342q0 -62 40.5 -100.5 t105.5 -38.5t105.5 38.5t40.5 100.5t-40 100t-105 38q-66 0 -106.5 -38t-40.5 -100z" />
<glyph unicode="k" horiz-adv-x="1057" d="M134 141q0 -67 34.5 -104t88.5 -37q56 0 92 37t36 104v362l436 -464q36 -42 87 -42q46 0 81.5 33.5t35.5 78.5q0 39 -30 72l-345 360l302 290q28 29 28 69q0 45 -33 80.5t-75 35.5q-41 0 -73 -35l-414 -412v732q0 67 -35.5 104t-90.5 37t-90 -37t-35 -104v-1160z" />
<glyph unicode="l" horiz-adv-x="524" d="M138 140q0 -67 34.5 -103.5t88.5 -36.5q56 0 92.5 37t36.5 103v1161q0 66 -36 103t-91 37t-90 -37t-35 -103v-1161z" />
<glyph unicode="m" horiz-adv-x="1876" d="M133 138q0 -66 35 -102t88 -36q56 0 92.5 36t36.5 102v440q0 124 66 196t176 72q89 0 138.5 -55t49.5 -163v-490q0 -65 35.5 -101.5t88.5 -36.5q56 0 91.5 36.5t35.5 101.5v415q0 137 68 215t176 78q88 0 138 -54t50 -158v-496q0 -66 35 -102t89 -36q56 0 91.5 36 t35.5 102v498q0 188 -100 284t-264 96q-259 0 -352 -219q-32 102 -117 160.5t-210 58.5q-228 0 -321 -182v50q0 56 -36.5 87.5t-89.5 31.5q-56 0 -91 -35t-35 -99v-731z" />
<glyph unicode="n" horiz-adv-x="1194" d="M132 138q0 -65 35 -101.5t90 -36.5t90.5 36.5t35.5 101.5v423q0 127 73 206t173 79q83 0 136.5 -54.5t53.5 -157.5v-496q0 -65 35 -101.5t88 -36.5q56 0 92 36.5t36 101.5v495q0 96 -29 171t-79 120.5t-113.5 69t-135.5 23.5q-117 0 -201.5 -44t-128.5 -129v35 q0 59 -35 91.5t-89 32.5q-55 0 -91 -33t-36 -93v-739z" />
<glyph unicode="o" horiz-adv-x="1209" d="M80 501q0 -101 32 -191t93.5 -163t164.5 -116t234 -43q106 0 194 29t148.5 77.5t102 115t61 139.5t19.5 152q0 83 -20.5 159t-63.5 141.5t-104 113t-147.5 75t-189.5 27.5q-105 0 -192.5 -28.5t-148 -77.5t-102.5 -115t-61.5 -140.5t-19.5 -154.5zM331 501 q0 164 71.5 254.5t201.5 90.5t202 -91t72 -254q0 -162 -72 -252t-202 -90q-129 0 -201 90t-72 252z" />
<glyph unicode="p" horiz-adv-x="1226" d="M132 -243q0 -64 35 -100t89 -36q56 0 91.5 35.5t35.5 100.5v392q98 -161 316 -161q203 0 325 136.5t122 371.5q0 148 -50.5 265t-150 186.5t-232.5 69.5q-234 0 -330 -174v35q0 61 -33.5 93t-89.5 32q-54 0 -91 -39t-37 -104v-1103zM384 500q0 172 60.5 259t204.5 87 q56 0 100 -22t71.5 -57t45.5 -82t25 -93t7 -94q0 -53 -8 -100t-26.5 -91.5t-46.5 -76.5t-72 -51.5t-99 -19.5q-90 0 -150.5 47.5t-86 122t-25.5 171.5z" />
<glyph unicode="q" horiz-adv-x="1226" d="M80 496q0 -235 122 -371.5t325 -136.5q220 0 316 161v-392q0 -65 35.5 -100.5t91.5 -35.5q55 0 89.5 35.5t34.5 100.5v1103q0 65 -36.5 104t-90.5 39q-57 0 -90 -32t-33 -93v-35q-97 174 -331 174q-133 0 -232.5 -69.5t-150 -186.5t-50.5 -265zM328 498q0 61 12.5 118.5 t39.5 111.5t78 87t120 33q143 0 203.5 -88t60.5 -260q0 -97 -25.5 -171.5t-86 -122.5t-150.5 -48q-68 0 -118.5 29t-78.5 78.5t-41.5 107.5t-13.5 125z" />
<glyph unicode="r" horiz-adv-x="775" d="M133 137q0 -66 35.5 -101.5t89.5 -35.5q56 0 91.5 35t35.5 100v422q0 71 23 120t65 73t87.5 33.5t104.5 9.5q39 0 62 32t23 74q0 44 -25 75t-71 31q-94 0 -169.5 -64.5t-102.5 -154.5l3 103q1 53 -36.5 83.5t-88.5 30.5q-52 0 -89.5 -31.5t-37.5 -88.5v-746z" />
<glyph unicode="s" horiz-adv-x="1001" d="M96 738q0 -57 15 -99.5t39 -71t69 -52t89 -38.5t115 -34l156 -40q139 -34 139 -119q0 -48 -32.5 -78.5t-78 -42t-103.5 -11.5q-59 0 -118 16.5t-85.5 29.5t-70.5 38q-27 15 -52 15q-35 0 -57.5 -25t-22.5 -58q0 -41 36 -67q159 -116 392 -116q180 0 292.5 81t112.5 234 q0 122 -74.5 191t-235.5 109l-154 39q-83 19 -112.5 41.5t-29.5 69.5q0 53 54 78.5t131 25.5q23 0 45.5 -2t45.5 -6.5t39.5 -8t39.5 -11t31.5 -10t29.5 -10.5t22 -8q22 -8 39 -8q34 0 54.5 22.5t20.5 54.5q0 54 -54 80q-155 75 -328 75q-179 0 -289 -73.5t-110 -210.5z" />
<glyph unicode="t" horiz-adv-x="786" d="M22 915q0 -39 23.5 -62.5t66.5 -23.5h97v-517q0 -155 76.5 -237.5t212.5 -83.5h22q36 0 58 1t52.5 3.5t48.5 9.5t35.5 18t25.5 29t8 42q0 38 -24 66t-65 28h-7l-71 -4h-11q-61 0 -85 47t-24 143v455h160q43 0 65 22t22 60q0 39 -22 62.5t-64 23.5h-161v255q0 58 -24.5 87 t-68.5 29q-55 0 -86.5 -34.5t-37.5 -88.5l-30 -248h-105q-43 0 -65 -22.5t-22 -59.5z" />
<glyph unicode="u" horiz-adv-x="1194" d="M124 371q0 -95 29.5 -170t80.5 -120.5t114.5 -69t135.5 -23.5q237 0 327 172v-37q0 -59 35 -91t89 -32q55 0 91 33t36 93v738q0 66 -35 102.5t-90 36.5t-90.5 -36.5t-35.5 -102.5v-420q0 -127 -73.5 -206t-174.5 -79q-82 0 -135 54.5t-53 157.5v493q0 66 -35 102.5 t-88 36.5q-56 0 -92 -36.5t-36 -102.5v-493z" />
<glyph unicode="v" horiz-adv-x="1072" d="M50 891q0 -26 10 -50l266 -647q42 -113 87 -156.5t126 -43.5t125.5 43.5t86.5 156.5l267 647q10 24 10 50q0 49 -36 82t-82 33q-35 0 -64 -21t-45 -64l-262 -667l-262 667q-16 43 -45 64t-64 21q-46 0 -82 -33t-36 -82z" />
<glyph unicode="w" horiz-adv-x="1711" d="M83 893q0 -20 6 -41l222 -684q49 -168 164 -168q68 0 111.5 38t75.5 143l200 588l200 -588q32 -105 75.5 -143t111.5 -38q115 0 164 168l222 684q6 21 6 41q0 49 -34 78.5t-79 29.5q-37 0 -67 -22t-42 -65l-196 -656l-202 600q-23 73 -61 109.5t-98 36.5t-98 -36.5 t-61 -109.5l-202 -600l-196 656q-12 43 -42 65t-67 22q-45 0 -79 -29.5t-34 -78.5z" />
<glyph unicode="x" horiz-adv-x="1072" d="M79 104q0 -43 32 -74.5t74 -31.5q56 0 94 51l244 297l245 -286q47 -63 105 -63q47 0 84.5 34t37.5 78q0 42 -31 84l-277 325l262 312q28 37 28 72q0 44 -31 75t-75 31q-50 0 -88 -48l-235 -280l-221 259q-51 64 -101 64q-48 0 -86.5 -34t-38.5 -80q0 -42 32 -87l251 -294 l-279 -330q-26 -35 -26 -74z" />
<glyph unicode="y" horiz-adv-x="1082" d="M63 881q0 -29 14 -56l357 -678l-200 -399q-13 -26 -13 -54q0 -49 37 -83.5t84 -34.5q65 0 99 68l597 1195q14 28 14 58q0 47 -34.5 79.5t-80.5 32.5q-73 0 -111 -78l-267 -533l-266 524q-37 72 -108 72q-48 0 -85 -33t-37 -80z" />
<glyph unicode="z" horiz-adv-x="974" d="M73 100q0 -46 31.5 -73t82.5 -27h612q49 0 75.5 26.5t26.5 69.5q0 38 -24.5 66t-68.5 28h-430l491 627q35 48 35 93t-33 69.5t-93 24.5h-585q-49 0 -75 -26.5t-26 -69.5q0 -44 27 -70t74 -26h405l-492 -623q-33 -42 -33 -89z" />
<glyph unicode="{" horiz-adv-x="718" d="M7 621q0 -47 26.5 -72.5t69.5 -27.5q78 -7 105 -55.5t27 -150.5v-312q0 -108 69.5 -172.5t163.5 -64.5h137q83 0 90 88q0 49 -23 75.5t-64 26.5h-41q-25 0 -42 9t-26.5 22.5t-14.5 39.5t-6.5 50.5t-1.5 64.5v227q0 50 -14 92.5t-33 68.5t-44.5 46.5t-43 29.5t-32.5 14 q167 57 167 270v206q0 103 16.5 147.5t70.5 44.5h35q45 0 70.5 25.5t25.5 69.5q0 96 -96 96h-130q-106 0 -169.5 -73t-63.5 -171v-307q0 -106 -28 -153t-104 -54q-47 -4 -71.5 -31t-24.5 -69z" />
<glyph unicode="|" horiz-adv-x="455" d="M139 -215q0 -49 24.5 -79.5t63.5 -30.5q38 0 63.5 28t25.5 72v1605q0 48 -24.5 78.5t-63.5 30.5q-36 0 -62.5 -24t-26.5 -65v-1615z" />
<glyph unicode="}" horiz-adv-x="718" d="M20 -139q0 -44 25 -69.5t66 -25.5h140q100 0 165 70.5t65 173.5v305q0 107 29 154.5t110 52.5q41 0 65 29t24 70q0 47 -27 72t-70 28q-77 6 -104 54.5t-27 152.5v314q0 107 -69 172t-161 65h-140q-44 0 -67 -26.5t-23 -67.5q0 -48 26.5 -72.5t69.5 -24.5h35q54 0 71 -45 t17 -139v-229q0 -48 14.5 -88.5t37.5 -67.5t45 -45.5t43.5 -33.5t26.5 -20q-18 -7 -37 -17t-43.5 -31t-42.5 -47t-31 -67t-13 -89v-242q0 -90 -17.5 -130t-67.5 -40h-44q-45 0 -68 -27.5t-23 -68.5z" />
<glyph unicode="~" horiz-adv-x="1309" d="M312 1213q0 -26 19.5 -42t45.5 -16q35 0 55 28q21 30 40 45t44 15q28 -1 73 -24t96.5 -45.5t95.5 -22.5q79 0 126 46t67 121q2 12 2 17q0 28 -18.5 47t-43.5 19q-35 0 -58 -37q-33 -57 -73 -57q-26 0 -71 22.5t-100.5 45.5t-104.5 23q-139 0 -191 -163q-4 -11 -4 -22z " />
<glyph unicode="&#xa1;" horiz-adv-x="783" d="M270 -270q0 11 1 16l75 831q4 38 26 58.5t50 20.5t50 -20.5t26 -58.5l76 -831q1 -5 1 -16q0 -61 -45 -94.5t-107 -33.5t-107.5 33.5t-45.5 94.5zM281 971q0 59 41 100t103 41t103 -41.5t41 -99.5q0 -60 -42 -100t-102 -40q-63 0 -103.5 41.5t-40.5 98.5z" />
<glyph unicode="&#xa2;" horiz-adv-x="1049" d="M80 503q0 -226 140 -370.5t361 -144.5q110 0 190 25.5t122 63.5q40 34 40 80q0 34 -22 58.5t-54 24.5q-26 0 -51 -17q-78 -52 -201 -52q-127 0 -199.5 91.5t-72.5 242.5t73.5 241t203.5 90q86 0 176 -45q23 -13 47 -13q34 0 57.5 24t23.5 57q0 46 -45 78q-110 80 -285 80 q-147 0 -263 -69.5t-178.5 -186.5t-62.5 -258zM512 84v-287q0 -34 20 -53.5t49 -19.5q28 0 48 18t20 51v291h-137zM512 936l137 1v276q0 33 -20 50.5t-48 17.5q-29 0 -49 -19.5t-20 -53.5v-272z" />
<glyph unicode="&#xa3;" horiz-adv-x="1384" d="M142 805q0 -40 14.5 -71.5t37.5 -31.5h106v-486h-71q-26 0 -40.5 -31.5t-14.5 -75.5q0 -45 15 -77.5t42 -32.5h872q29 0 45 32.5t16 77.5t-16 77.5t-45 32.5h-541v483h313q30 0 46 25.5t16 62.5q0 40 -16.5 71.5t-42.5 31.5h-316v86q0 68 3.5 108t14.5 77t32.5 55.5 t57 29t89.5 10.5q105 0 265 -34q2 -1 7 -1q27 0 44.5 43t17.5 89q0 45 -17 51q-61 22 -157 40t-183 18q-212 0 -324 -104.5t-112 -305.5v-162h-106q-25 0 -38.5 -25.5t-13.5 -62.5z" />
<glyph unicode="&#xa5;" horiz-adv-x="1274" d="M69 1304q0 -37 20 -71l417 -659v-428q0 -69 42.5 -107.5t101.5 -38.5t101 38.5t42 107.5v437l423 674q22 37 22 71q0 47 -36 79t-83 32q-73 0 -112 -70l-343 -565l-330 550q-48 85 -127 85q-55 0 -96.5 -40t-41.5 -95zM153 365q0 -28 16.5 -50t46.5 -22h900 q30 0 46.5 21.5t16.5 49.5q0 26 -17 48t-46 22h-900q-30 0 -46.5 -21.5t-16.5 -47.5zM153 606q0 -28 16.5 -49.5t46.5 -21.5h900q30 0 46.5 21t16.5 49q0 27 -17 49t-46 22h-900q-30 0 -46.5 -22t-16.5 -48z" />
<glyph unicode="&#xa8;" horiz-adv-x="569" d="M-59 1310q0 -54 38 -90t92 -36q56 0 93.5 37t37.5 89t-37.5 89t-93.5 37t-93 -37.5t-37 -88.5zM368 1310q0 -54 38 -90t93 -36q54 0 92 37t38 89q0 53 -38 89.5t-92 36.5q-57 0 -94 -37.5t-37 -88.5z" />
<glyph unicode="&#xa9;" horiz-adv-x="1700" d="M142 775q0 -141 57 -268t153.5 -218.5t228.5 -145.5t277 -54t277 54.5t227.5 146.5t152 219t56.5 266q0 188 -96.5 347t-260.5 250.5t-356 91.5q-146 0 -279 -55.5t-228.5 -148.5t-152 -220t-56.5 -265zM286 775q0 156 74 283.5t205 200t293 72.5q244 0 406.5 -160 t162.5 -396q0 -158 -74.5 -285.5t-205 -199t-289.5 -71.5q-162 0 -293 73t-205 200t-74 283zM480 779q0 -96 32 -173.5t86.5 -125.5t123 -73t144.5 -25q48 0 105.5 10.5t108.5 38t51 65.5q0 21 -14 37.5t-33 16.5q-10 0 -19 -4q-89 -44 -179 -44q-111 0 -185 73.5t-74 205.5 q0 136 70.5 202t182.5 66q82 0 164 -34q5 -2 19.5 -8t19.5 -6q23 0 37.5 19t14.5 43q0 34 -52 59.5t-111.5 36.5t-105.5 11q-163 0 -274.5 -102.5t-111.5 -288.5z" />
<glyph unicode="&#xab;" horiz-adv-x="1206" d="M140 534l229 -403q49 -87 110 -87q41 0 67 25t26 66q-1 14 -11 40l-164 359l159 348q16 36 16 54q0 37 -26.5 62.5t-63.5 25.5q-62 0 -103 -68zM595 534l229 -403q47 -87 108 -87h2q42 0 68 25t26 66q-1 14 -11 40l-164 359l159 348q16 36 16 54q0 37 -27 62.5t-64 25.5 q-61 0 -102 -68z" />
<glyph unicode="&#xad;" horiz-adv-x="678" d="M37 533q0 -42 28.5 -70t70.5 -28h401q44 0 74 28t30 70q0 43 -29 70.5t-75 27.5h-396q-46 0 -75 -27.5t-29 -70.5z" />
<glyph unicode="&#xae;" horiz-adv-x="1705" d="M131 755q0 -140 58 -267.5t155.5 -220t231.5 -147.5t280 -55q147 0 281 55.5t230.5 148.5t153.5 220t57 266q0 142 -58 271t-155 222t-230.5 148t-278.5 55q-147 0 -281.5 -56t-231.5 -149.5t-154.5 -222t-57.5 -268.5zM280 755q0 159 75 287t207 200.5t294 72.5 q163 0 295 -74t206 -202t74 -284q0 -158 -75.5 -286.5t-207 -201t-292.5 -72.5q-122 0 -229.5 43.5t-183.5 118t-119.5 178t-43.5 220.5zM588 443q0 -33 19.5 -49.5t47.5 -16.5q29 0 49 21t20 55v258h126l184 -303q17 -30 52 -30q27 0 48.5 18t21.5 45q0 18 -10 35l-162 238 q105 14 162.5 61.5t57.5 146.5q0 117 -69.5 167t-230.5 50h-233q-41 0 -62 -25t-21 -68v-603zM724 823v203h175q79 0 121.5 -21t42.5 -75q0 -65 -41 -86.5t-121 -21.5q-16 0 -64 1t-72 1q-8 0 -21.5 -0.5t-19.5 -0.5z" />
<glyph unicode="&#xb4;" horiz-adv-x="569" d="M55 1257q0 -25 17 -41t41 -16q25 0 49 19l305 251q36 30 36 70q0 45 -37.5 79.5t-80.5 34.5q-44 0 -83 -58l-227 -292q-20 -28 -20 -47z" />
<glyph unicode="&#xb8;" horiz-adv-x="569" d="M44 -349q0 -39 71.5 -59.5t164.5 -20.5q92 0 158.5 42t68.5 121q0 80 -49 118t-127 39q-11 0 -49 -2l43 114h-90l-52 -130q-7 -18 -7 -28q0 -38 50 -38q4 1 12 2t12 2q42 0 72 -17.5t30 -52.5q0 -80 -102 -80q-15 0 -31 2t-35 6.5t-30 7.5t-33.5 9.5t-28.5 8.5t-10 2 q-18 0 -28 -13.5t-10 -32.5z" />
<glyph unicode="&#xbb;" horiz-adv-x="1206" d="M174 130q0 -39 27.5 -62.5t65.5 -23.5q60 0 110 87l230 403l-230 402q-51 87 -111 87q-39 0 -65.5 -24t-26.5 -62q0 -20 15 -54l160 -349l-160 -349q-15 -36 -15 -55zM629 938q0 -18 16 -56l160 -348l-160 -348q-15 -36 -15 -56q0 -39 27 -62.5t66 -23.5q59 0 109 87 l230 403l-230 402q-51 87 -111 87q-38 0 -65 -24t-27 -61z" />
<glyph unicode="&#xbf;" horiz-adv-x="1050" d="M108 26q0 -99 35.5 -174.5t98 -120.5t141.5 -67t173 -22q159 0 304 41q43 13 64.5 42t21.5 63q0 47 -26.5 78t-68.5 31q-21 0 -105 -12.5t-127 -12.5q-95 0 -155.5 40.5t-60.5 135.5q0 43 18.5 83.5t48.5 73.5t66.5 65.5t72 64.5t65.5 65t48 73t17 83l-1 81 q-2 50 -36.5 77t-81.5 27q-48 0 -83.5 -28t-34.5 -76l1 -65q1 -35 -28 -71.5t-73 -66.5t-95.5 -71.5t-95.5 -85t-73.5 -109.5t-29.5 -142zM473 1011q0 -60 42 -100t103 -40q64 0 104 41.5t40 98.5q0 59 -40.5 100.5t-103.5 41.5t-104 -41.5t-41 -100.5z" />
<glyph unicode="&#xc0;" horiz-adv-x="1458" d="M59 121q0 -55 42 -91t96 -36q43 0 78 24.5t52 73.5l90 240h638l90 -240q17 -49 52 -73.5t78 -24.5q54 0 96 36t42 91q0 25 -10 51l-439 1099q-42 111 -96.5 149t-131.5 38t-131.5 -38t-96.5 -149l-439 -1099q-10 -26 -10 -51zM337 1933q0 -35 29 -60l305 -251 q30 -28 62 -28q23 0 38.5 18t15.5 42q0 16 -19 44l-223 287q-42 62 -89 62q-44 0 -81.5 -35t-37.5 -79zM489 525l247 659l247 -659h-494z" />
<glyph unicode="&#xc1;" horiz-adv-x="1458" d="M59 121q0 -55 42 -91t96 -36q43 0 78 24.5t52 73.5l90 240h638l90 -240q17 -49 52 -73.5t78 -24.5q54 0 96 36t42 91q0 25 -10 51l-439 1099q-42 111 -96.5 149t-131.5 38t-131.5 -38t-96.5 -149l-439 -1099q-10 -26 -10 -51zM489 525l247 659l247 -659h-494zM667 1655 q0 -25 17 -41t41 -16q25 0 49 19l305 251q36 30 36 70q0 45 -37.5 79.5t-80.5 34.5q-44 0 -83 -58l-227 -292q-20 -28 -20 -47z" />
<glyph unicode="&#xc2;" horiz-adv-x="1458" d="M59 121q0 -55 42 -91t96 -36q43 0 78 24.5t52 73.5l90 240h638l90 -240q17 -49 52 -73.5t78 -24.5q54 0 96 36t42 91q0 25 -10 51l-439 1099q-42 111 -96.5 149t-131.5 38t-131.5 -38t-96.5 -149l-439 -1099q-10 -26 -10 -51zM396 1592q0 -29 21 -48t52 -19q46 0 93 58 l156 203l155 -205q37 -55 89 -55q30 0 51.5 19.5t21.5 48.5q0 28 -27 66l-185 244q-47 60 -106 60q-57 0 -106 -60l-189 -248q-26 -37 -26 -64zM489 525l247 659l247 -659h-494z" />
<glyph unicode="&#xc3;" horiz-adv-x="1458" d="M59 121q0 -55 42 -91t96 -36q43 0 78 24.5t52 73.5l90 240h638l90 -240q17 -49 52 -73.5t78 -24.5q54 0 96 36t42 91q0 25 -10 51l-439 1099q-42 111 -96.5 149t-131.5 38t-131.5 -38t-96.5 -149l-439 -1099q-10 -26 -10 -51zM385 1654q0 -26 16.5 -40.5t41.5 -14.5 q46 0 69 39q34 55 73 55q28 0 74 -23.5t98.5 -47t96.5 -23.5q77 0 129.5 51.5t58.5 138.5q0 21 -13 35t-31 15q-7 13 -23 13q-22 -5 -39.5 -21t-26.5 -32t-23 -29t-30 -13q-27 0 -73 23t-101 46t-104 23q-157 0 -191 -182q-2 -8 -2 -13zM489 525l247 659l247 -659h-494z" />
<glyph unicode="&#xc4;" horiz-adv-x="1458" d="M59 121q0 -55 42 -91t96 -36q43 0 78 24.5t52 73.5l90 240h638l90 -240q17 -49 52 -73.5t78 -24.5q54 0 96 36t42 91q0 25 -10 51l-439 1099q-42 111 -96.5 149t-131.5 38t-131.5 -38t-96.5 -149l-439 -1099q-10 -26 -10 -51zM382 1708q0 -54 38 -90t92 -36q56 0 93.5 37 t37.5 89t-37.5 89t-93.5 37t-93 -37.5t-37 -88.5zM489 525l247 659l247 -659h-494zM809 1708q0 -54 38 -90t93 -36q54 0 92 37t38 89q0 53 -38 89.5t-92 36.5q-57 0 -94 -37.5t-37 -88.5z" />
<glyph unicode="&#xc5;" horiz-adv-x="1458" d="M59 121q0 -55 42 -91t96 -36q43 0 78 24.5t52 73.5l90 240h638l90 -240q17 -49 52 -73.5t78 -24.5q54 0 96 36t42 91q0 25 -10 51l-439 1099q-42 111 -96.5 149t-131.5 38t-131.5 -38t-96.5 -149l-439 -1099q-10 -26 -10 -51zM489 525l247 659l247 -659h-494zM515 1788 q0 -92 59 -150t152 -58q92 0 151 58.5t59 149.5t-59 149.5t-151 58.5q-93 0 -152 -58t-59 -150zM622 1788q0 44 29 72.5t75 28.5q45 0 74.5 -28.5t29.5 -72.5t-29.5 -72t-74.5 -28q-46 0 -75 28t-29 72z" />
<glyph unicode="&#xc6;" horiz-adv-x="1979" d="M58 104q0 -47 33.5 -75t80.5 -28q92 0 145 111l152 234h616l39 -221q15 -125 140 -125h568q53 1 80.5 27.5t27.5 71.5q0 54 -31 85.5t-92 31.5h-432l-67 413h467q107 0 107 101q0 51 -33 83t-89 32h-479l-60 381h586q54 0 82 26.5t28 74.5q0 50 -34 82.5t-89 32.5 l-817 -1q-96 0 -164 -57t-141 -209l-599 -981q-25 -52 -25 -90zM555 526l403 742h3l103 -742h-509z" />
<glyph unicode="&#xc7;" horiz-adv-x="1383" d="M108 720q0 -223 89.5 -393.5t245 -261.5t351.5 -91q252 0 427 117q56 39 56 101q0 44 -28.5 78t-69.5 34q-21 0 -42 -11q-160 -87 -298 -87q-208 0 -318.5 135.5t-110.5 385.5q0 263 110 393t313 130q39 0 75 -5t68 -14.5t52.5 -17t49 -20.5t36.5 -16q21 -8 38 -8 q45 0 78 36t33 82q0 66 -69 104q-184 92 -375 92q-152 0 -282.5 -53.5t-225.5 -150.5t-149 -241t-54 -318zM549 -345q0 -39 71.5 -59.5t164.5 -20.5q92 0 158.5 42t68.5 121q0 80 -49 118t-127 39q-11 0 -49 -2l43 114h-90l-52 -130q-7 -18 -7 -28q0 -38 50 -38q4 1 12 2 t12 2q42 0 72 -17.5t30 -52.5q0 -80 -102 -80q-15 0 -31 2t-35 6.5t-30 7.5t-33.5 9.5t-28.5 8.5t-10 2q-18 0 -28 -13.5t-10 -32.5z" />
<glyph unicode="&#xc8;" horiz-adv-x="1243" d="M168 161q0 -63 41 -112t100 -49h741q48 0 76.5 33.5t28.5 78.5t-28.5 79t-76.5 34h-597v401h535q49 0 78.5 33t29.5 78t-29 78t-79 33h-535v368h574q49 0 78 34t29 79t-29 79t-78 34h-711q-71 0 -109.5 -47.5t-38.5 -121.5v-1112zM267 1933q0 -35 29 -60l305 -251 q30 -28 62 -28q23 0 38.5 18t15.5 42q0 16 -19 44l-223 287q-42 62 -89 62q-44 0 -81.5 -35t-37.5 -79z" />
<glyph unicode="&#xc9;" horiz-adv-x="1243" d="M168 161q0 -63 41 -112t100 -49h741q48 0 76.5 33.5t28.5 78.5t-28.5 79t-76.5 34h-597v401h535q49 0 78.5 33t29.5 78t-29 78t-79 33h-535v368h574q49 0 78 34t29 79t-29 79t-78 34h-711q-71 0 -109.5 -47.5t-38.5 -121.5v-1112zM597 1655q0 -25 17 -41t41 -16 q25 0 49 19l305 251q36 30 36 70q0 45 -37.5 79.5t-80.5 34.5q-44 0 -83 -58l-227 -292q-20 -28 -20 -47z" />
<glyph unicode="&#xca;" horiz-adv-x="1243" d="M168 161q0 -63 41 -112t100 -49h741q48 0 76.5 33.5t28.5 78.5t-28.5 79t-76.5 34h-597v401h535q49 0 78.5 33t29.5 78t-29 78t-79 33h-535v368h574q49 0 78 34t29 79t-29 79t-78 34h-711q-71 0 -109.5 -47.5t-38.5 -121.5v-1112zM326 1592q0 -29 21 -48t52 -19 q46 0 93 58l156 203l155 -205q37 -55 89 -55q30 0 51.5 19.5t21.5 48.5q0 28 -27 66l-185 244q-47 60 -106 60q-57 0 -106 -60l-189 -248q-26 -37 -26 -64z" />
<glyph unicode="&#xcb;" horiz-adv-x="1243" d="M168 161q0 -63 41 -112t100 -49h741q48 0 76.5 33.5t28.5 78.5t-28.5 79t-76.5 34h-597v401h535q49 0 78.5 33t29.5 78t-29 78t-79 33h-535v368h574q49 0 78 34t29 79t-29 79t-78 34h-711q-71 0 -109.5 -47.5t-38.5 -121.5v-1112zM312 1708q0 -54 38 -90t92 -36 q56 0 93.5 37t37.5 89t-37.5 89t-93.5 37t-93 -37.5t-37 -88.5zM739 1708q0 -54 38 -90t93 -36q54 0 92 37t38 89q0 53 -38 89.5t-92 36.5q-57 0 -94 -37.5t-37 -88.5z" />
<glyph unicode="&#xcc;" horiz-adv-x="650" d="M-62 1933q0 -35 29 -60l305 -251q30 -28 62 -28q23 0 38.5 18t15.5 42q0 16 -19 44l-223 287q-42 62 -89 62q-44 0 -81.5 -35t-37.5 -79zM181 150q0 -67 42 -108t100 -41q59 0 102 41t43 108v1145q0 67 -43 108t-101 41t-100.5 -41t-42.5 -108v-1145z" />
<glyph unicode="&#xcd;" horiz-adv-x="650" d="M181 150q0 -67 42 -108t100 -41q59 0 102 41t43 108v1145q0 67 -43 108t-101 41t-100.5 -41t-42.5 -108v-1145zM268 1655q0 -25 17 -41t41 -16q25 0 49 19l305 251q36 30 36 70q0 45 -37.5 79.5t-80.5 34.5q-44 0 -83 -58l-227 -292q-20 -28 -20 -47z" />
<glyph unicode="&#xce;" horiz-adv-x="650" d="M-3 1592q0 -29 21 -48t52 -19q46 0 93 58l156 203l155 -205q37 -55 89 -55q30 0 51.5 19.5t21.5 48.5q0 28 -27 66l-185 244q-47 60 -106 60q-57 0 -106 -60l-189 -248q-26 -37 -26 -64zM181 150q0 -67 42 -108t100 -41q59 0 102 41t43 108v1145q0 67 -43 108t-101 41 t-100.5 -41t-42.5 -108v-1145z" />
<glyph unicode="&#xcf;" horiz-adv-x="650" d="M-17 1708q0 -54 38 -90t92 -36q56 0 93.5 37t37.5 89t-37.5 89t-93.5 37t-93 -37.5t-37 -88.5zM181 150q0 -67 42 -108t100 -41q59 0 102 41t43 108v1145q0 67 -43 108t-101 41t-100.5 -41t-42.5 -108v-1145zM410 1708q0 -54 38 -90t93 -36q54 0 92 37t38 89 q0 53 -38 89.5t-92 36.5q-57 0 -94 -37.5t-37 -88.5z" />
<glyph unicode="&#xd1;" horiz-adv-x="1566" d="M164 126q0 -57 38.5 -91.5t89.5 -34.5q52 0 91 35t39 91v886l653 -904q33 -47 83 -77.5t93 -30.5q68 0 110 54.5t42 140.5v1121q0 57 -38.5 92t-89.5 35q-52 0 -90.5 -35.5t-38.5 -91.5v-886l-658 911q-31 47 -79.5 74t-93.5 27q-64 0 -107.5 -46.5t-43.5 -126.5v-1143z M499 1662q0 -26 16.5 -40.5t41.5 -14.5q46 0 69 39q34 55 73 55q28 0 74 -23.5t98.5 -47t96.5 -23.5q77 0 129.5 51.5t58.5 138.5q0 21 -13 35t-31 15q-7 13 -23 13q-22 -5 -39.5 -21t-26.5 -32t-23 -29t-30 -13q-27 0 -73 23t-101 46t-104 23q-157 0 -191 -182 q-2 -8 -2 -13z" />
<glyph unicode="&#xd2;" horiz-adv-x="1619" d="M104 728q0 -352 183 -553t518 -201q337 0 519 201t182 553t-182 553.5t-519 201.5q-335 0 -518 -201.5t-183 -553.5zM406 728q0 253 99 390.5t300 137.5q202 0 300.5 -137t98.5 -391q0 -255 -99 -391.5t-300 -136.5q-202 0 -300.5 136.5t-98.5 391.5zM418 1941 q0 -35 29 -60l305 -251q30 -28 62 -28q23 0 38.5 18t15.5 42q0 16 -19 44l-223 287q-42 62 -89 62q-44 0 -81.5 -35t-37.5 -79z" />
<glyph unicode="&#xd3;" horiz-adv-x="1619" d="M104 728q0 -352 183 -553t518 -201q337 0 519 201t182 553t-182 553.5t-519 201.5q-335 0 -518 -201.5t-183 -553.5zM406 728q0 253 99 390.5t300 137.5q202 0 300.5 -137t98.5 -391q0 -255 -99 -391.5t-300 -136.5q-202 0 -300.5 136.5t-98.5 391.5zM748 1663 q0 -25 17 -41t41 -16q25 0 49 19l305 251q36 30 36 70q0 45 -37.5 79.5t-80.5 34.5q-44 0 -83 -58l-227 -292q-20 -28 -20 -47z" />
<glyph unicode="&#xd4;" horiz-adv-x="1619" d="M104 728q0 -352 183 -553t518 -201q337 0 519 201t182 553t-182 553.5t-519 201.5q-335 0 -518 -201.5t-183 -553.5zM406 728q0 253 99 390.5t300 137.5q202 0 300.5 -137t98.5 -391q0 -255 -99 -391.5t-300 -136.5q-202 0 -300.5 136.5t-98.5 391.5zM477 1600 q0 -29 21 -48t52 -19q46 0 93 58l156 203l155 -205q37 -55 89 -55q30 0 51.5 19.5t21.5 48.5q0 28 -27 66l-185 244q-47 60 -106 60q-57 0 -106 -60l-189 -248q-26 -37 -26 -64z" />
<glyph unicode="&#xd5;" horiz-adv-x="1619" d="M104 728q0 -352 183 -553t518 -201q337 0 519 201t182 553t-182 553.5t-519 201.5q-335 0 -518 -201.5t-183 -553.5zM406 728q0 253 99 390.5t300 137.5q202 0 300.5 -137t98.5 -391q0 -255 -99 -391.5t-300 -136.5q-202 0 -300.5 136.5t-98.5 391.5zM466 1662 q0 -26 16.5 -40.5t41.5 -14.5q46 0 69 39q34 55 73 55q28 0 74 -23.5t98.5 -47t96.5 -23.5q77 0 129.5 51.5t58.5 138.5q0 21 -13 35t-31 15q-7 13 -23 13q-22 -5 -39.5 -21t-26.5 -32t-23 -29t-30 -13q-27 0 -73 23t-101 46t-104 23q-157 0 -191 -182q-2 -8 -2 -13z" />
<glyph unicode="&#xd6;" horiz-adv-x="1619" d="M104 728q0 -352 183 -553t518 -201q337 0 519 201t182 553t-182 553.5t-519 201.5q-335 0 -518 -201.5t-183 -553.5zM406 728q0 253 99 390.5t300 137.5q202 0 300.5 -137t98.5 -391q0 -255 -99 -391.5t-300 -136.5q-202 0 -300.5 136.5t-98.5 391.5zM463 1716 q0 -54 38 -90t92 -36q56 0 93.5 37t37.5 89t-37.5 89t-93.5 37t-93 -37.5t-37 -88.5zM890 1716q0 -54 38 -90t93 -36q54 0 92 37t38 89q0 53 -38 89.5t-92 36.5q-57 0 -94 -37.5t-37 -88.5z" />
<glyph unicode="&#xd8;" horiz-adv-x="1606" d="M104 728q0 -411 243 -610l-103 -160q-23 -36 -23 -69t23 -54t56 -21q23 0 40.5 16t38.5 49l103 157q139 -62 323 -62q337 0 519 201t182 553q0 374 -201 573l98 151q26 41 26 75q0 33 -23 55t-55 22q-46 0 -73 -44l-104 -161q-154 84 -369 84q-335 0 -518 -201.5 t-183 -553.5zM406 728q0 253 99 390.5t300 137.5q142 0 233 -68l-542 -839q-90 133 -90 379zM615 242l529 812q60 -124 60 -326q0 -255 -99 -391.5t-300 -136.5q-108 0 -190 42z" />
<glyph unicode="&#xd9;" horiz-adv-x="1513" d="M162 498q0 -129 46 -230.5t128 -165t188.5 -96t232.5 -32.5t233.5 33t189.5 96.5t128.5 164.5t46.5 230v801q0 67 -42.5 108t-100.5 41q-59 0 -101.5 -41t-42.5 -108v-794q0 -78 -26.5 -138.5t-71.5 -95.5t-99 -53t-114 -18t-113.5 18t-97.5 53t-70.5 95.5t-26.5 138.5 v794q0 67 -42.5 108t-101.5 41t-101 -41t-42 -108v-801zM373 1933q0 -35 29 -60l305 -251q30 -28 62 -28q23 0 38.5 18t15.5 42q0 16 -19 44l-223 287q-42 62 -89 62q-44 0 -81.5 -35t-37.5 -79z" />
<glyph unicode="&#xda;" horiz-adv-x="1513" d="M162 498q0 -129 46 -230.5t128 -165t188.5 -96t232.5 -32.5t233.5 33t189.5 96.5t128.5 164.5t46.5 230v801q0 67 -42.5 108t-100.5 41q-59 0 -101.5 -41t-42.5 -108v-794q0 -78 -26.5 -138.5t-71.5 -95.5t-99 -53t-114 -18t-113.5 18t-97.5 53t-70.5 95.5t-26.5 138.5 v794q0 67 -42.5 108t-101.5 41t-101 -41t-42 -108v-801zM703 1655q0 -25 17 -41t41 -16q25 0 49 19l305 251q36 30 36 70q0 45 -37.5 79.5t-80.5 34.5q-44 0 -83 -58l-227 -292q-20 -28 -20 -47z" />
<glyph unicode="&#xdb;" horiz-adv-x="1513" d="M162 498q0 -129 46 -230.5t128 -165t188.5 -96t232.5 -32.5t233.5 33t189.5 96.5t128.5 164.5t46.5 230v801q0 67 -42.5 108t-100.5 41q-59 0 -101.5 -41t-42.5 -108v-794q0 -78 -26.5 -138.5t-71.5 -95.5t-99 -53t-114 -18t-113.5 18t-97.5 53t-70.5 95.5t-26.5 138.5 v794q0 67 -42.5 108t-101.5 41t-101 -41t-42 -108v-801zM432 1592q0 -29 21 -48t52 -19q46 0 93 58l156 203l155 -205q37 -55 89 -55q30 0 51.5 19.5t21.5 48.5q0 28 -27 66l-185 244q-47 60 -106 60q-57 0 -106 -60l-189 -248q-26 -37 -26 -64z" />
<glyph unicode="&#xdc;" horiz-adv-x="1513" d="M162 498q0 -129 46 -230.5t128 -165t188.5 -96t232.5 -32.5t233.5 33t189.5 96.5t128.5 164.5t46.5 230v801q0 67 -42.5 108t-100.5 41q-59 0 -101.5 -41t-42.5 -108v-794q0 -78 -26.5 -138.5t-71.5 -95.5t-99 -53t-114 -18t-113.5 18t-97.5 53t-70.5 95.5t-26.5 138.5 v794q0 67 -42.5 108t-101.5 41t-101 -41t-42 -108v-801zM418 1708q0 -54 38 -90t92 -36q56 0 93.5 37t37.5 89t-37.5 89t-93.5 37t-93 -37.5t-37 -88.5zM845 1708q0 -54 38 -90t93 -36q54 0 92 37t38 89q0 53 -38 89.5t-92 36.5q-57 0 -94 -37.5t-37 -88.5z" />
<glyph unicode="&#xdd;" horiz-adv-x="1308" d="M69 1304q0 -37 20 -71l417 -659v-428q0 -69 42.5 -107.5t101.5 -38.5t101 38.5t42 107.5v437l423 674q22 37 22 71q0 47 -36 79t-83 32q-73 0 -112 -70l-343 -565l-330 550q-48 85 -127 85q-55 0 -96.5 -40t-41.5 -95zM613 1655q0 -25 17 -41t41 -16q25 0 49 19l305 251 q36 30 36 70q0 45 -37.5 79.5t-80.5 34.5q-44 0 -83 -58l-227 -292q-20 -28 -20 -47z" />
<glyph unicode="&#xdf;" horiz-adv-x="1355" d="M142 137q0 -65 35 -100.5t88 -35.5q55 0 91.5 40t36.5 107v821q1 72 15 131t42.5 108.5t78.5 77t118 27.5q87 0 150.5 -42t63.5 -120q0 -38 -24.5 -73.5t-59.5 -65t-70.5 -61t-60 -75t-24.5 -93.5t24 -93t62 -74t84 -58.5t92 -54t84 -54t62 -63.5t24 -78 q0 -81 -44.5 -122t-121.5 -41q-104 0 -167 95q-26 44 -70 44q-35 0 -64 -27t-29 -64q0 -23 9 -40q41 -88 128.5 -132.5t203.5 -44.5q105 0 194 39t145.5 119.5t56.5 187.5q0 63 -23 115t-59.5 87t-80.5 64t-88.5 52.5t-81 46t-59.5 51t-23 61.5q0 24 24 53t58 59t68 63.5 t58 79t24 94.5q0 102 -63.5 178t-162.5 112.5t-216 36.5q-528 0 -528 -523v-815z" />
<glyph unicode="&#xe0;" horiz-adv-x="1087" d="M70 275q0 -135 97.5 -210.5t249.5 -76.5q116 0 187.5 47.5t103.5 123.5v-33q0 -60 35.5 -93t84.5 -33t84 33t35 93v508q0 102 -30.5 177t-86.5 119t-129 65t-165 21q-203 0 -369 -78q-44 -21 -44 -70q0 -37 24.5 -66.5t59.5 -29.5q17 0 28 5q1 0 22 8.5t27 10.5t27 9.5 t32 10.5t32 9t36 8.5t35 6t39.5 5t38.5 1.5q88 0 132.5 -43.5t44.5 -137.5v-77q-102 0 -174 -2.5t-142.5 -10.5t-116.5 -22.5t-87 -37.5t-63.5 -56t-35 -78.5t-12.5 -105.5zM155 1492q0 -35 29 -60l305 -251q30 -28 62 -28q23 0 38.5 18t15.5 42q0 16 -19 44l-223 287 q-42 62 -89 62q-44 0 -81.5 -35t-37.5 -79zM300 289q0 46 14 75.5t39 48t77.5 27t111 11.5t158.5 3v-29q0 -121 -77 -200t-175 -79q-67 0 -107.5 36.5t-40.5 106.5z" />
<glyph unicode="&#xe1;" horiz-adv-x="1087" d="M70 275q0 -135 97.5 -210.5t249.5 -76.5q116 0 187.5 47.5t103.5 123.5v-33q0 -60 35.5 -93t84.5 -33t84 33t35 93v508q0 102 -30.5 177t-86.5 119t-129 65t-165 21q-203 0 -369 -78q-44 -21 -44 -70q0 -37 24.5 -66.5t59.5 -29.5q17 0 28 5q1 0 22 8.5t27 10.5t27 9.5 t32 10.5t32 9t36 8.5t35 6t39.5 5t38.5 1.5q88 0 132.5 -43.5t44.5 -137.5v-77q-102 0 -174 -2.5t-142.5 -10.5t-116.5 -22.5t-87 -37.5t-63.5 -56t-35 -78.5t-12.5 -105.5zM300 289q0 46 14 75.5t39 48t77.5 27t111 11.5t158.5 3v-29q0 -121 -77 -200t-175 -79 q-67 0 -107.5 36.5t-40.5 106.5zM485 1214q0 -25 17 -41t41 -16q25 0 49 19l305 251q36 30 36 70q0 45 -37.5 79.5t-80.5 34.5q-44 0 -83 -58l-227 -292q-20 -28 -20 -47z" />
<glyph unicode="&#xe2;" horiz-adv-x="1087" d="M70 275q0 -135 97.5 -210.5t249.5 -76.5q116 0 187.5 47.5t103.5 123.5v-33q0 -60 35.5 -93t84.5 -33t84 33t35 93v508q0 102 -30.5 177t-86.5 119t-129 65t-165 21q-203 0 -369 -78q-44 -21 -44 -70q0 -37 24.5 -66.5t59.5 -29.5q17 0 28 5q1 0 22 8.5t27 10.5t27 9.5 t32 10.5t32 9t36 8.5t35 6t39.5 5t38.5 1.5q88 0 132.5 -43.5t44.5 -137.5v-77q-102 0 -174 -2.5t-142.5 -10.5t-116.5 -22.5t-87 -37.5t-63.5 -56t-35 -78.5t-12.5 -105.5zM214 1151q0 -29 21 -48t52 -19q46 0 93 58l156 203l155 -205q37 -55 89 -55q30 0 51.5 19.5 t21.5 48.5q0 28 -27 66l-185 244q-47 60 -106 60q-57 0 -106 -60l-189 -248q-26 -37 -26 -64zM300 289q0 46 14 75.5t39 48t77.5 27t111 11.5t158.5 3v-29q0 -121 -77 -200t-175 -79q-67 0 -107.5 36.5t-40.5 106.5z" />
<glyph unicode="&#xe3;" horiz-adv-x="1087" d="M70 275q0 -135 97.5 -210.5t249.5 -76.5q116 0 187.5 47.5t103.5 123.5v-33q0 -60 35.5 -93t84.5 -33t84 33t35 93v508q0 102 -30.5 177t-86.5 119t-129 65t-165 21q-203 0 -369 -78q-44 -21 -44 -70q0 -37 24.5 -66.5t59.5 -29.5q17 0 28 5q1 0 22 8.5t27 10.5t27 9.5 t32 10.5t32 9t36 8.5t35 6t39.5 5t38.5 1.5q88 0 132.5 -43.5t44.5 -137.5v-77q-102 0 -174 -2.5t-142.5 -10.5t-116.5 -22.5t-87 -37.5t-63.5 -56t-35 -78.5t-12.5 -105.5zM203 1213q0 -26 16.5 -40.5t41.5 -14.5q46 0 69 39q34 55 73 55q28 0 74 -23.5t98.5 -47 t96.5 -23.5q77 0 129.5 51.5t58.5 138.5q0 21 -13 35t-31 15q-7 13 -23 13q-22 -5 -39.5 -21t-26.5 -32t-23 -29t-30 -13q-27 0 -73 23t-101 46t-104 23q-157 0 -191 -182q-2 -8 -2 -13zM300 289q0 46 14 75.5t39 48t77.5 27t111 11.5t158.5 3v-29q0 -121 -77 -200t-175 -79 q-67 0 -107.5 36.5t-40.5 106.5z" />
<glyph unicode="&#xe4;" horiz-adv-x="1087" d="M70 275q0 -135 97.5 -210.5t249.5 -76.5q116 0 187.5 47.5t103.5 123.5v-33q0 -60 35.5 -93t84.5 -33t84 33t35 93v508q0 102 -30.5 177t-86.5 119t-129 65t-165 21q-203 0 -369 -78q-44 -21 -44 -70q0 -37 24.5 -66.5t59.5 -29.5q17 0 28 5q1 0 22 8.5t27 10.5t27 9.5 t32 10.5t32 9t36 8.5t35 6t39.5 5t38.5 1.5q88 0 132.5 -43.5t44.5 -137.5v-77q-102 0 -174 -2.5t-142.5 -10.5t-116.5 -22.5t-87 -37.5t-63.5 -56t-35 -78.5t-12.5 -105.5zM200 1267q0 -54 38 -90t92 -36q56 0 93.5 37t37.5 89t-37.5 89t-93.5 37t-93 -37.5t-37 -88.5z M300 289q0 46 14 75.5t39 48t77.5 27t111 11.5t158.5 3v-29q0 -121 -77 -200t-175 -79q-67 0 -107.5 36.5t-40.5 106.5zM627 1267q0 -54 38 -90t93 -36q54 0 92 37t38 89q0 53 -38 89.5t-92 36.5q-57 0 -94 -37.5t-37 -88.5z" />
<glyph unicode="&#xe5;" horiz-adv-x="1087" d="M70 275q0 -135 97.5 -210.5t249.5 -76.5q116 0 187.5 47.5t103.5 123.5v-33q0 -60 35.5 -93t84.5 -33t84 33t35 93v508q0 102 -30.5 177t-86.5 119t-129 65t-165 21q-203 0 -369 -78q-44 -21 -44 -70q0 -37 24.5 -66.5t59.5 -29.5q17 0 28 5q1 0 22 8.5t27 10.5t27 9.5 t32 10.5t32 9t36 8.5t35 6t39.5 5t38.5 1.5q88 0 132.5 -43.5t44.5 -137.5v-77q-102 0 -174 -2.5t-142.5 -10.5t-116.5 -22.5t-87 -37.5t-63.5 -56t-35 -78.5t-12.5 -105.5zM300 289q0 46 14 75.5t39 48t77.5 27t111 11.5t158.5 3v-29q0 -121 -77 -200t-175 -79 q-67 0 -107.5 36.5t-40.5 106.5zM333 1347q0 -92 59 -150t152 -58q92 0 151 58.5t59 149.5t-59 149.5t-151 58.5q-93 0 -152 -58t-59 -150zM440 1347q0 44 29 72.5t75 28.5q45 0 74.5 -28.5t29.5 -72.5t-29.5 -72t-74.5 -28q-46 0 -75 28t-29 72z" />
<glyph unicode="&#xe6;" horiz-adv-x="1742" d="M60 275q0 -141 100 -219.5t268 -78.5q135 0 241 48.5t160 147.5q119 -196 356 -196q95 0 188 20.5t162 65.5t69 104q0 30 -17.5 53t-44.5 23q-17 0 -33 -8q-3 -1 -37.5 -16.5t-44.5 -19.5t-41 -15.5t-50 -15t-47 -8t-54 -4.5q-263 0 -268 299h601q38 0 58.5 20.5 t20.5 54.5q-3 226 -117 362.5t-330 136.5q-209 0 -336 -158q-81 155 -314 157q-300 0 -396 -130q-19 -25 -19 -53q0 -30 21 -52t51 -22q19 0 33 7q51 22 83 34t88 23t116 11q94 0 145 -38.5t51 -132.5v-63q-54 2 -97 2q-273 0 -419.5 -80.5t-146.5 -258.5zM292 292 q0 38 16 67.5t39.5 48.5t63 32.5t72.5 20.5t83 10.5t79.5 4t76.5 0.5v-75q-4 -129 -70.5 -200t-173.5 -73q-83 2 -134.5 43.5t-51.5 120.5zM967 591q9 126 69.5 203t165.5 77t161 -73.5t64 -206.5h-460z" />
<glyph unicode="&#xe7;" horiz-adv-x="1009" d="M80 503q0 -226 140 -370.5t361 -144.5q110 0 190 25.5t122 63.5q40 34 40 80q0 34 -22 58.5t-54 24.5q-26 0 -51 -17q-78 -52 -201 -52q-127 0 -199.5 91.5t-72.5 242.5t73.5 241t203.5 90q86 0 176 -45q23 -13 47 -13q34 0 57.5 24t23.5 57q0 46 -45 78q-110 80 -285 80 q-147 0 -263 -69.5t-178.5 -186.5t-62.5 -258zM329 -345q0 -39 71.5 -59.5t164.5 -20.5q92 0 158.5 42t68.5 121q0 80 -49 118t-127 39q-11 0 -49 -2l43 114h-90l-52 -130q-7 -18 -7 -28q0 -38 50 -38q4 1 12 2t12 2q42 0 72 -17.5t30 -52.5q0 -80 -102 -80q-15 0 -31 2 t-35 6.5t-30 7.5t-33.5 9.5t-28.5 8.5t-10 2q-18 0 -28 -13.5t-10 -32.5z" />
<glyph unicode="&#xe8;" horiz-adv-x="1145" d="M80 511q0 -247 142.5 -385t379.5 -138q211 0 369 133q32 28 32 68q0 35 -24 63t-55 28q-21 0 -39 -14q-141 -101 -265 -101q-273 0 -289 282h632q36 0 54 24t18 63q-1 99 -29 184t-82.5 153t-144 106.5t-205.5 38.5q-151 0 -265 -70t-171.5 -183.5t-57.5 -251.5z M209 1496q0 -35 29 -60l305 -251q30 -28 62 -28q23 0 38.5 18t15.5 42q0 16 -19 44l-223 287q-42 62 -89 62q-44 0 -81.5 -35t-37.5 -79zM333 588q9 109 72.5 186t175.5 77q115 0 173.5 -74t66.5 -189h-488z" />
<glyph unicode="&#xe9;" horiz-adv-x="1145" d="M80 511q0 -247 142.5 -385t379.5 -138q211 0 369 133q32 28 32 68q0 35 -24 63t-55 28q-21 0 -39 -14q-141 -101 -265 -101q-273 0 -289 282h632q36 0 54 24t18 63q-1 99 -29 184t-82.5 153t-144 106.5t-205.5 38.5q-151 0 -265 -70t-171.5 -183.5t-57.5 -251.5zM333 588 q9 109 72.5 186t175.5 77q115 0 173.5 -74t66.5 -189h-488zM539 1218q0 -25 17 -41t41 -16q25 0 49 19l305 251q36 30 36 70q0 45 -37.5 79.5t-80.5 34.5q-44 0 -83 -58l-227 -292q-20 -28 -20 -47z" />
<glyph unicode="&#xea;" horiz-adv-x="1145" d="M80 511q0 -247 142.5 -385t379.5 -138q211 0 369 133q32 28 32 68q0 35 -24 63t-55 28q-21 0 -39 -14q-141 -101 -265 -101q-273 0 -289 282h632q36 0 54 24t18 63q-1 99 -29 184t-82.5 153t-144 106.5t-205.5 38.5q-151 0 -265 -70t-171.5 -183.5t-57.5 -251.5z M268 1155q0 -29 21 -48t52 -19q46 0 93 58l156 203l155 -205q37 -55 89 -55q30 0 51.5 19.5t21.5 48.5q0 28 -27 66l-185 244q-47 60 -106 60q-57 0 -106 -60l-189 -248q-26 -37 -26 -64zM333 588q9 109 72.5 186t175.5 77q115 0 173.5 -74t66.5 -189h-488z" />
<glyph unicode="&#xeb;" horiz-adv-x="1145" d="M80 511q0 -247 142.5 -385t379.5 -138q211 0 369 133q32 28 32 68q0 35 -24 63t-55 28q-21 0 -39 -14q-141 -101 -265 -101q-273 0 -289 282h632q36 0 54 24t18 63q-1 99 -29 184t-82.5 153t-144 106.5t-205.5 38.5q-151 0 -265 -70t-171.5 -183.5t-57.5 -251.5z M254 1271q0 -54 38 -90t92 -36q56 0 93.5 37t37.5 89t-37.5 89t-93.5 37t-93 -37.5t-37 -88.5zM333 588q9 109 72.5 186t175.5 77q115 0 173.5 -74t66.5 -189h-488zM681 1271q0 -54 38 -90t93 -36q54 0 92 37t38 89q0 53 -38 89.5t-92 36.5q-57 0 -94 -37.5t-37 -88.5z" />
<glyph unicode="&#xec;" horiz-adv-x="522" d="M-128 1486q0 -35 29 -60l305 -251q30 -28 62 -28q23 0 38.5 18t15.5 42q0 16 -19 44l-223 287q-42 62 -89 62q-44 0 -81.5 -35t-37.5 -79zM134 145q0 -70 35 -107.5t89 -37.5q55 0 91.5 40t36.5 105v714q0 70 -35.5 108t-90.5 38q-52 0 -89 -34.5t-37 -94.5v-731z" />
<glyph unicode="&#xed;" horiz-adv-x="522" d="M134 145q0 -70 35 -107.5t89 -37.5q55 0 91.5 40t36.5 105v714q0 70 -35.5 108t-90.5 38q-52 0 -89 -34.5t-37 -94.5v-731zM202 1208q0 -25 17 -41t41 -16q25 0 49 19l305 251q36 30 36 70q0 45 -37.5 79.5t-80.5 34.5q-44 0 -83 -58l-227 -292q-20 -28 -20 -47z" />
<glyph unicode="&#xee;" horiz-adv-x="522" d="M-69 1145q0 -29 21 -48t52 -19q46 0 93 58l156 203l155 -205q37 -55 89 -55q30 0 51.5 19.5t21.5 48.5q0 28 -27 66l-185 244q-47 60 -106 60q-57 0 -106 -60l-189 -248q-26 -37 -26 -64zM134 145q0 -70 35 -107.5t89 -37.5q55 0 91.5 40t36.5 105v714q0 70 -35.5 108 t-90.5 38q-52 0 -89 -34.5t-37 -94.5v-731z" />
<glyph unicode="&#xef;" horiz-adv-x="522" d="M-83 1261q0 -54 38 -90t92 -36q56 0 93.5 37t37.5 89t-37.5 89t-93.5 37t-93 -37.5t-37 -88.5zM134 145q0 -70 35 -107.5t89 -37.5q55 0 91.5 40t36.5 105v714q0 70 -35.5 108t-90.5 38q-52 0 -89 -34.5t-37 -94.5v-731zM344 1261q0 -54 38 -90t93 -36q54 0 92 37t38 89 q0 53 -38 89.5t-92 36.5q-57 0 -94 -37.5t-37 -88.5z" />
<glyph unicode="&#xf1;" d="M132 138q0 -65 35 -101.5t90 -36.5t90.5 36.5t35.5 101.5v423q0 127 73 206t173 79q83 0 136.5 -54.5t53.5 -157.5v-496q0 -65 35 -101.5t88 -36.5q56 0 92 36.5t36 101.5v495q0 96 -29 171t-79 120.5t-113.5 69t-135.5 23.5q-117 0 -201.5 -44t-128.5 -129v35 q0 59 -35 91.5t-89 32.5q-55 0 -91 -33t-36 -93v-739zM289 1207q0 -26 16.5 -40.5t41.5 -14.5q46 0 69 39q34 55 73 55q28 0 74 -23.5t98.5 -47t96.5 -23.5q77 0 129.5 51.5t58.5 138.5q0 21 -13 35t-31 15q-7 13 -23 13q-22 -5 -39.5 -21t-26.5 -32t-23 -29t-30 -13 q-27 0 -73 23t-101 46t-104 23q-157 0 -191 -182q-2 -8 -2 -13z" />
<glyph unicode="&#xf2;" horiz-adv-x="1215" d="M80 501q0 -101 32 -191t93.5 -163t164.5 -116t234 -43q106 0 194 29t148.5 77.5t102 115t61 139.5t19.5 152q0 83 -20.5 159t-63.5 141.5t-104 113t-147.5 75t-189.5 27.5q-105 0 -192.5 -28.5t-148 -77.5t-102.5 -115t-61.5 -140.5t-19.5 -154.5zM216 1490q0 -35 29 -60 l305 -251q30 -28 62 -28q23 0 38.5 18t15.5 42q0 16 -19 44l-223 287q-42 62 -89 62q-44 0 -81.5 -35t-37.5 -79zM331 501q0 164 71.5 254.5t201.5 90.5t202 -91t72 -254q0 -162 -72 -252t-202 -90q-129 0 -201 90t-72 252z" />
<glyph unicode="&#xf3;" horiz-adv-x="1215" d="M80 501q0 -101 32 -191t93.5 -163t164.5 -116t234 -43q106 0 194 29t148.5 77.5t102 115t61 139.5t19.5 152q0 83 -20.5 159t-63.5 141.5t-104 113t-147.5 75t-189.5 27.5q-105 0 -192.5 -28.5t-148 -77.5t-102.5 -115t-61.5 -140.5t-19.5 -154.5zM331 501 q0 164 71.5 254.5t201.5 90.5t202 -91t72 -254q0 -162 -72 -252t-202 -90q-129 0 -201 90t-72 252zM546 1212q0 -25 17 -41t41 -16q25 0 49 19l305 251q36 30 36 70q0 45 -37.5 79.5t-80.5 34.5q-44 0 -83 -58l-227 -292q-20 -28 -20 -47z" />
<glyph unicode="&#xf4;" horiz-adv-x="1215" d="M80 501q0 -101 32 -191t93.5 -163t164.5 -116t234 -43q106 0 194 29t148.5 77.5t102 115t61 139.5t19.5 152q0 83 -20.5 159t-63.5 141.5t-104 113t-147.5 75t-189.5 27.5q-105 0 -192.5 -28.5t-148 -77.5t-102.5 -115t-61.5 -140.5t-19.5 -154.5zM275 1149q0 -29 21 -48 t52 -19q46 0 93 58l156 203l155 -205q37 -55 89 -55q30 0 51.5 19.5t21.5 48.5q0 28 -27 66l-185 244q-47 60 -106 60q-57 0 -106 -60l-189 -248q-26 -37 -26 -64zM331 501q0 164 71.5 254.5t201.5 90.5t202 -91t72 -254q0 -162 -72 -252t-202 -90q-129 0 -201 90t-72 252z " />
<glyph unicode="&#xf5;" horiz-adv-x="1215" d="M80 501q0 -101 32 -191t93.5 -163t164.5 -116t234 -43q106 0 194 29t148.5 77.5t102 115t61 139.5t19.5 152q0 83 -20.5 159t-63.5 141.5t-104 113t-147.5 75t-189.5 27.5q-105 0 -192.5 -28.5t-148 -77.5t-102.5 -115t-61.5 -140.5t-19.5 -154.5zM264 1211 q0 -26 16.5 -40.5t41.5 -14.5q46 0 69 39q34 55 73 55q28 0 74 -23.5t98.5 -47t96.5 -23.5q77 0 129.5 51.5t58.5 138.5q0 21 -13 35t-31 15q-7 13 -23 13q-22 -5 -39.5 -21t-26.5 -32t-23 -29t-30 -13q-27 0 -73 23t-101 46t-104 23q-157 0 -191 -182q-2 -8 -2 -13z M331 501q0 164 71.5 254.5t201.5 90.5t202 -91t72 -254q0 -162 -72 -252t-202 -90q-129 0 -201 90t-72 252z" />
<glyph unicode="&#xf6;" horiz-adv-x="1215" d="M80 501q0 -101 32 -191t93.5 -163t164.5 -116t234 -43q106 0 194 29t148.5 77.5t102 115t61 139.5t19.5 152q0 83 -20.5 159t-63.5 141.5t-104 113t-147.5 75t-189.5 27.5q-105 0 -192.5 -28.5t-148 -77.5t-102.5 -115t-61.5 -140.5t-19.5 -154.5zM261 1265q0 -54 38 -90 t92 -36q56 0 93.5 37t37.5 89t-37.5 89t-93.5 37t-93 -37.5t-37 -88.5zM331 501q0 164 71.5 254.5t201.5 90.5t202 -91t72 -254q0 -162 -72 -252t-202 -90q-129 0 -201 90t-72 252zM688 1265q0 -54 38 -90t93 -36q54 0 92 37t38 89q0 53 -38 89.5t-92 36.5q-57 0 -94 -37.5 t-37 -88.5z" />
<glyph unicode="&#xf8;" horiz-adv-x="1215" d="M80 501q0 -140 60 -259t177 -185l-55 -112q-16 -29 -16 -54q0 -28 21 -47.5t50 -19.5q40 0 60 41l70 141q70 -18 157 -18q106 0 194 29t148.5 77.5t102 115t61 139.5t19.5 152q0 138 -56.5 253t-164.5 183l55 112q23 46 23 70q0 30 -21 48t-49 18q-44 0 -65 -41l-73 -149 q-76 22 -174 22q-105 0 -192.5 -28.5t-148 -77.5t-102.5 -115t-61.5 -140.5t-19.5 -154.5zM331 501q0 164 71.5 254.5t201.5 90.5q55 0 94 -14l-290 -589q-77 91 -77 258zM527 168l286 578q65 -91 65 -245q0 -162 -72 -252t-202 -90q-41 0 -77 9z" />
<glyph unicode="&#xf9;" d="M124 371q0 -95 29.5 -170t80.5 -120.5t114.5 -69t135.5 -23.5q237 0 327 172v-37q0 -59 35 -91t89 -32q55 0 91 33t36 93v738q0 66 -35 102.5t-90 36.5t-90.5 -36.5t-35.5 -102.5v-420q0 -127 -73.5 -206t-174.5 -79q-82 0 -135 54.5t-53 157.5v493q0 66 -35 102.5 t-88 36.5q-56 0 -92 -36.5t-36 -102.5v-493zM201 1490q0 -35 29 -60l305 -251q30 -28 62 -28q23 0 38.5 18t15.5 42q0 16 -19 44l-223 287q-42 62 -89 62q-44 0 -81.5 -35t-37.5 -79z" />
<glyph unicode="&#xfa;" d="M124 371q0 -95 29.5 -170t80.5 -120.5t114.5 -69t135.5 -23.5q237 0 327 172v-37q0 -59 35 -91t89 -32q55 0 91 33t36 93v738q0 66 -35 102.5t-90 36.5t-90.5 -36.5t-35.5 -102.5v-420q0 -127 -73.5 -206t-174.5 -79q-82 0 -135 54.5t-53 157.5v493q0 66 -35 102.5 t-88 36.5q-56 0 -92 -36.5t-36 -102.5v-493zM531 1212q0 -25 17 -41t41 -16q25 0 49 19l305 251q36 30 36 70q0 45 -37.5 79.5t-80.5 34.5q-44 0 -83 -58l-227 -292q-20 -28 -20 -47z" />
<glyph unicode="&#xfb;" d="M124 371q0 -95 29.5 -170t80.5 -120.5t114.5 -69t135.5 -23.5q237 0 327 172v-37q0 -59 35 -91t89 -32q55 0 91 33t36 93v738q0 66 -35 102.5t-90 36.5t-90.5 -36.5t-35.5 -102.5v-420q0 -127 -73.5 -206t-174.5 -79q-82 0 -135 54.5t-53 157.5v493q0 66 -35 102.5 t-88 36.5q-56 0 -92 -36.5t-36 -102.5v-493zM260 1149q0 -29 21 -48t52 -19q46 0 93 58l156 203l155 -205q37 -55 89 -55q30 0 51.5 19.5t21.5 48.5q0 28 -27 66l-185 244q-47 60 -106 60q-57 0 -106 -60l-189 -248q-26 -37 -26 -64z" />
<glyph unicode="&#xfc;" d="M124 371q0 -95 29.5 -170t80.5 -120.5t114.5 -69t135.5 -23.5q237 0 327 172v-37q0 -59 35 -91t89 -32q55 0 91 33t36 93v738q0 66 -35 102.5t-90 36.5t-90.5 -36.5t-35.5 -102.5v-420q0 -127 -73.5 -206t-174.5 -79q-82 0 -135 54.5t-53 157.5v493q0 66 -35 102.5 t-88 36.5q-56 0 -92 -36.5t-36 -102.5v-493zM246 1265q0 -54 38 -90t92 -36q56 0 93.5 37t37.5 89t-37.5 89t-93.5 37t-93 -37.5t-37 -88.5zM673 1265q0 -54 38 -90t93 -36q54 0 92 37t38 89q0 53 -38 89.5t-92 36.5q-57 0 -94 -37.5t-37 -88.5z" />
<glyph unicode="&#xfd;" horiz-adv-x="1077" d="M63 881q0 -29 14 -56l357 -678l-200 -399q-13 -26 -13 -54q0 -49 37 -83.5t84 -34.5q65 0 99 68l597 1195q14 28 14 58q0 47 -34.5 79.5t-80.5 32.5q-73 0 -111 -78l-267 -533l-266 524q-37 72 -108 72q-48 0 -85 -33t-37 -80zM514 1235q0 -25 17 -41t41 -16q25 0 49 19 l305 251q36 30 36 70q0 45 -37.5 79.5t-80.5 34.5q-44 0 -83 -58l-227 -292q-20 -28 -20 -47z" />
<glyph unicode="&#xff;" horiz-adv-x="1077" d="M63 881q0 -29 14 -56l357 -678l-200 -399q-13 -26 -13 -54q0 -49 37 -83.5t84 -34.5q65 0 99 68l597 1195q14 28 14 58q0 47 -34.5 79.5t-80.5 32.5q-73 0 -111 -78l-267 -533l-266 524q-37 72 -108 72q-48 0 -85 -33t-37 -80zM229 1288q0 -54 38 -90t92 -36 q56 0 93.5 37t37.5 89t-37.5 89t-93.5 37t-93 -37.5t-37 -88.5zM656 1288q0 -54 38 -90t93 -36q54 0 92 37t38 89q0 53 -38 89.5t-92 36.5q-57 0 -94 -37.5t-37 -88.5z" />
<glyph unicode="&#x100;" horiz-adv-x="1458" d="M59 121q0 -55 42 -91t96 -36q43 0 78 24.5t52 73.5l90 240h638l90 -240q17 -49 52 -73.5t78 -24.5q54 0 96 36t42 91q0 25 -10 51l-439 1099q-42 111 -96.5 149t-131.5 38t-131.5 -38t-96.5 -149l-439 -1099q-10 -26 -10 -51zM371 1767q0 -35 21 -59t59 -24h551 q39 0 59.5 23.5t20.5 59.5t-21.5 59.5t-58.5 23.5h-549q-39 0 -60.5 -24t-21.5 -59zM489 525l247 659l247 -659h-494z" />
<glyph unicode="&#x101;" horiz-adv-x="1087" d="M70 275q0 -135 97.5 -210.5t249.5 -76.5q116 0 187.5 47.5t103.5 123.5v-33q0 -60 35.5 -93t84.5 -33t84 33t35 93v508q0 102 -30.5 177t-86.5 119t-129 65t-165 21q-203 0 -369 -78q-44 -21 -44 -70q0 -37 24.5 -66.5t59.5 -29.5q17 0 28 5q1 0 22 8.5t27 10.5t27 9.5 t32 10.5t32 9t36 8.5t35 6t39.5 5t38.5 1.5q88 0 132.5 -43.5t44.5 -137.5v-77q-102 0 -174 -2.5t-142.5 -10.5t-116.5 -22.5t-87 -37.5t-63.5 -56t-35 -78.5t-12.5 -105.5zM189 1326q0 -35 21 -59t59 -24h551q39 0 59.5 23.5t20.5 59.5t-21.5 59.5t-58.5 23.5h-549 q-39 0 -60.5 -24t-21.5 -59zM300 289q0 46 14 75.5t39 48t77.5 27t111 11.5t158.5 3v-29q0 -121 -77 -200t-175 -79q-67 0 -107.5 36.5t-40.5 106.5z" />
<glyph unicode="&#x102;" horiz-adv-x="1458" d="M59 121q0 -55 42 -91t96 -36q43 0 78 24.5t52 73.5l90 240h638l90 -240q17 -49 52 -73.5t78 -24.5q54 0 96 36t42 91q0 25 -10 51l-439 1099q-42 111 -96.5 149t-131.5 38t-131.5 -38t-96.5 -149l-439 -1099q-10 -26 -10 -51zM418 1824q0 -21 12 -52q37 -81 114.5 -124.5 t181.5 -43.5q94 0 165 34.5t108 98.5q33 37 35 85q0 32 -21.5 51t-51.5 19q-46 0 -77 -51q-28 -41 -63 -57t-95 -16t-95.5 16.5t-63.5 57.5q-30 50 -76 50q-29 0 -51 -18.5t-22 -49.5zM489 525l247 659l247 -659h-494z" />
<glyph unicode="&#x103;" horiz-adv-x="1087" d="M70 275q0 -135 97.5 -210.5t249.5 -76.5q116 0 187.5 47.5t103.5 123.5v-33q0 -60 35.5 -93t84.5 -33t84 33t35 93v508q0 102 -30.5 177t-86.5 119t-129 65t-165 21q-203 0 -369 -78q-44 -21 -44 -70q0 -37 24.5 -66.5t59.5 -29.5q17 0 28 5q1 0 22 8.5t27 10.5t27 9.5 t32 10.5t32 9t36 8.5t35 6t39.5 5t38.5 1.5q88 0 132.5 -43.5t44.5 -137.5v-77q-102 0 -174 -2.5t-142.5 -10.5t-116.5 -22.5t-87 -37.5t-63.5 -56t-35 -78.5t-12.5 -105.5zM237 1383q0 -21 12 -52q37 -81 114.5 -124.5t181.5 -43.5q94 0 165 34.5t108 98.5q33 37 35 85 q0 32 -21.5 51t-51.5 19q-46 0 -77 -51q-28 -41 -63 -57t-95 -16t-95.5 16.5t-63.5 57.5q-30 50 -76 50q-29 0 -51 -18.5t-22 -49.5zM300 289q0 46 14 75.5t39 48t77.5 27t111 11.5t158.5 3v-29q0 -121 -77 -200t-175 -79q-67 0 -107.5 36.5t-40.5 106.5z" />
<glyph unicode="&#x104;" horiz-adv-x="1458" d="M59 121q0 -55 42 -91t96 -36q43 0 78 24.5t52 73.5l90 240h638l90 -240q17 -49 52 -73.5t78 -24.5q54 0 96 36t42 91q0 25 -10 51l-439 1099q-42 111 -96.5 149t-131.5 38t-131.5 -38t-96.5 -149l-439 -1099q-10 -26 -10 -51zM489 525l247 659l247 -659h-494zM1093 -256 q0 -90 60.5 -145t159.5 -55q80 0 168 38v116q-35 0 -66.5 6.5t-63.5 21.5t-51 45t-19 73q0 73 56 175h-120q-124 -145 -124 -275z" />
<glyph unicode="&#x105;" horiz-adv-x="1087" d="M70 275q0 -135 97.5 -210.5t249.5 -76.5q116 0 187.5 47.5t103.5 123.5v-33q0 -60 35.5 -93t84.5 -33t84 33t35 93v508q0 102 -30.5 177t-86.5 119t-129 65t-165 21q-203 0 -369 -78q-44 -21 -44 -70q0 -37 24.5 -66.5t59.5 -29.5q17 0 28 5q1 0 22 8.5t27 10.5t27 9.5 t32 10.5t32 9t36 8.5t35 6t39.5 5t38.5 1.5q88 0 132.5 -43.5t44.5 -137.5v-77q-102 0 -174 -2.5t-142.5 -10.5t-116.5 -22.5t-87 -37.5t-63.5 -56t-35 -78.5t-12.5 -105.5zM300 289q0 46 14 75.5t39 48t77.5 27t111 11.5t158.5 3v-29q0 -121 -77 -200t-175 -79 q-67 0 -107.5 36.5t-40.5 106.5zM671 -253q0 -90 60.5 -145t159.5 -55q80 0 168 38v116q-35 0 -66.5 6.5t-63.5 21.5t-51 45t-19 73q0 73 56 175h-120q-124 -145 -124 -275z" />
<glyph unicode="&#x106;" horiz-adv-x="1383" d="M108 720q0 -223 89.5 -393.5t245 -261.5t351.5 -91q252 0 427 117q56 39 56 101q0 44 -28.5 78t-69.5 34q-21 0 -42 -11q-160 -87 -298 -87q-208 0 -318.5 135.5t-110.5 385.5q0 263 110 393t313 130q39 0 75 -5t68 -14.5t52.5 -17t49 -20.5t36.5 -16q21 -8 38 -8 q45 0 78 36t33 82q0 66 -69 104q-184 92 -375 92q-152 0 -282.5 -53.5t-225.5 -150.5t-149 -241t-54 -318zM749 1655q0 -25 17 -41t41 -16q25 0 49 19l305 251q36 30 36 70q0 45 -37.5 79.5t-80.5 34.5q-44 0 -83 -58l-227 -292q-20 -28 -20 -47z" />
<glyph unicode="&#x107;" horiz-adv-x="1009" d="M80 503q0 -226 140 -370.5t361 -144.5q110 0 190 25.5t122 63.5q40 34 40 80q0 34 -22 58.5t-54 24.5q-26 0 -51 -17q-78 -52 -201 -52q-127 0 -199.5 91.5t-72.5 242.5t73.5 241t203.5 90q86 0 176 -45q23 -13 47 -13q34 0 57.5 24t23.5 57q0 46 -45 78q-110 80 -285 80 q-147 0 -263 -69.5t-178.5 -186.5t-62.5 -258zM524 1235q0 -25 17 -41t41 -16q25 0 49 19l305 251q36 30 36 70q0 45 -37.5 79.5t-80.5 34.5q-44 0 -83 -58l-227 -292q-20 -28 -20 -47z" />
<glyph unicode="&#x10c;" horiz-adv-x="1383" d="M108 720q0 -223 89.5 -393.5t245 -261.5t351.5 -91q252 0 427 117q56 39 56 101q0 44 -28.5 78t-69.5 34q-21 0 -42 -11q-160 -87 -298 -87q-208 0 -318.5 135.5t-110.5 385.5q0 263 110 393t313 130q39 0 75 -5t68 -14.5t52.5 -17t49 -20.5t36.5 -16q21 -8 38 -8 q45 0 78 36t33 82q0 66 -69 104q-184 92 -375 92q-152 0 -282.5 -53.5t-225.5 -150.5t-149 -241t-54 -318zM485 1889q0 -28 23 -58l192 -253q50 -61 107 -61q59 0 108 67l182 237q26 36 26 64q0 31 -21 51t-52 20q-49 0 -89 -58l-154 -203l-157 206q-40 56 -90 56 q-31 0 -53 -19t-22 -49z" />
<glyph unicode="&#x10d;" horiz-adv-x="1009" d="M80 503q0 -226 140 -370.5t361 -144.5q110 0 190 25.5t122 63.5q40 34 40 80q0 34 -22 58.5t-54 24.5q-26 0 -51 -17q-78 -52 -201 -52q-127 0 -199.5 91.5t-72.5 242.5t73.5 241t203.5 90q86 0 176 -45q23 -13 47 -13q34 0 57.5 24t23.5 57q0 46 -45 78q-110 80 -285 80 q-147 0 -263 -69.5t-178.5 -186.5t-62.5 -258zM260 1469q0 -28 23 -58l192 -253q50 -61 107 -61q59 0 108 67l182 237q26 36 26 64q0 31 -21 51t-52 20q-49 0 -89 -58l-154 -203l-157 206q-40 56 -90 56q-31 0 -53 -19t-22 -49z" />
<glyph unicode="&#x10e;" horiz-adv-x="1525" d="M168 168q0 -69 40 -118.5t103 -49.5h356q366 0 565 184t199 530q0 355 -199 541.5t-588 186.5h-318q-73 0 -115.5 -45t-42.5 -124v-1105zM433 1889q0 -28 23 -58l192 -253q50 -61 107 -61q59 0 108 67l182 237q26 36 26 64q0 31 -21 51t-52 20q-49 0 -89 -58l-154 -203 l-157 206q-40 56 -90 56q-31 0 -53 -19t-22 -49zM454 221v999h202q167 0 270 -47.5t155 -158t52 -294.5q0 -267 -101.5 -383t-354.5 -116h-223z" />
<glyph unicode="&#x10f;" horiz-adv-x="1240" d="M80 506q0 -147 50.5 -264.5t150 -186.5t232.5 -69q235 0 331 173v-35q0 -61 33 -92.5t90 -31.5q54 0 90.5 38.5t36.5 103.5v1165q0 65 -34.5 100.5t-89.5 35.5q-56 0 -91.5 -35.5t-35.5 -100.5v-453q-97 160 -316 160q-203 0 -325 -136t-122 -372zM328 504q0 67 13.5 125 t41.5 107.5t78.5 78.5t118.5 29q90 0 150.5 -48t86 -122.5t25.5 -171.5q0 -172 -60.5 -260t-203.5 -88q-69 0 -120 32.5t-78 86.5t-39.5 111.5t-12.5 119.5zM1212 1015q0 -30 25 -31h90h3q38 0 53 43l161 443q3 12 3 18q0 35 -37 38h-148q-64 -2 -73 -56l-76 -443 q-1 -3 -1 -12z" />
<glyph unicode="&#x110;" horiz-adv-x="1525" d="M-11 732q0 -42 26.5 -67t70.5 -25h472q51 0 80.5 25t29.5 67q0 43 -29.5 68t-80.5 25h-458q-51 0 -81 -25t-30 -68zM168 168q0 -69 40 -118.5t103 -49.5h356q366 0 565 184t199 530q0 355 -199 541.5t-588 186.5h-318q-73 0 -115.5 -45t-42.5 -124v-1105zM454 221v999 h202q167 0 270 -47.5t155 -158t52 -294.5q0 -267 -101.5 -383t-354.5 -116h-223z" />
<glyph unicode="&#x111;" horiz-adv-x="1240" d="M80 506q0 -147 50.5 -264.5t150 -186.5t232.5 -69q235 0 331 173v-35q0 -61 33 -92.5t90 -31.5q54 0 90.5 38.5t36.5 103.5v1165q0 65 -34.5 100.5t-89.5 35.5q-56 0 -91.5 -35.5t-35.5 -100.5v-453q-97 160 -316 160q-203 0 -325 -136t-122 -372zM328 504q0 67 13.5 125 t41.5 107.5t78.5 78.5t118.5 29q90 0 150.5 -48t86 -122.5t25.5 -171.5q0 -172 -60.5 -260t-203.5 -88q-69 0 -120 32.5t-78 86.5t-39.5 111.5t-12.5 119.5zM588 1221q0 -35 21 -59t59 -24h551q39 0 59.5 23.5t20.5 59.5t-21.5 59.5t-58.5 23.5h-549q-39 0 -60.5 -24 t-21.5 -59z" />
<glyph unicode="&#x112;" horiz-adv-x="1243" d="M168 161q0 -63 41 -112t100 -49h741q48 0 76.5 33.5t28.5 78.5t-28.5 79t-76.5 34h-597v401h535q49 0 78.5 33t29.5 78t-29 78t-79 33h-535v368h574q49 0 78 34t29 79t-29 79t-78 34h-711q-71 0 -109.5 -47.5t-38.5 -121.5v-1112zM301 1767q0 -35 21 -59t59 -24h551 q39 0 59.5 23.5t20.5 59.5t-21.5 59.5t-58.5 23.5h-549q-39 0 -60.5 -24t-21.5 -59z" />
<glyph unicode="&#x113;" horiz-adv-x="1145" d="M80 511q0 -247 142.5 -385t379.5 -138q211 0 369 133q32 28 32 68q0 35 -24 63t-55 28q-21 0 -39 -14q-141 -101 -265 -101q-273 0 -289 282h632q36 0 54 24t18 63q-1 99 -29 184t-82.5 153t-144 106.5t-205.5 38.5q-151 0 -265 -70t-171.5 -183.5t-57.5 -251.5z M243 1330q0 -35 21 -59t59 -24h551q39 0 59.5 23.5t20.5 59.5t-21.5 59.5t-58.5 23.5h-549q-39 0 -60.5 -24t-21.5 -59zM333 588q9 109 72.5 186t175.5 77q115 0 173.5 -74t66.5 -189h-488z" />
<glyph unicode="&#x118;" horiz-adv-x="1243" d="M168 161q0 -63 41 -112t100 -49h741q48 0 76.5 33.5t28.5 78.5t-28.5 79t-76.5 34h-597v401h535q49 0 78.5 33t29.5 78t-29 78t-79 33h-535v368h574q49 0 78 34t29 79t-29 79t-78 34h-711q-71 0 -109.5 -47.5t-38.5 -121.5v-1112zM655 -266q0 -90 60.5 -145t159.5 -55 q80 0 168 38v116q-35 0 -66.5 6.5t-63.5 21.5t-51 45t-19 73q0 73 56 175h-120q-124 -145 -124 -275z" />
<glyph unicode="&#x119;" horiz-adv-x="1145" d="M80 511q0 -247 142.5 -385t379.5 -138q211 0 369 133q32 28 32 68q0 35 -24 63t-55 28q-21 0 -39 -14q-141 -101 -265 -101q-273 0 -289 282h632q36 0 54 24t18 63q-1 99 -29 184t-82.5 153t-144 106.5t-205.5 38.5q-151 0 -265 -70t-171.5 -183.5t-57.5 -251.5zM333 588 q9 109 72.5 186t175.5 77q115 0 173.5 -74t66.5 -189h-488zM607 -245q0 -90 60.5 -145t159.5 -55q80 0 168 38v116q-35 0 -66.5 6.5t-63.5 21.5t-51 45t-19 73q0 73 56 175h-120q-124 -145 -124 -275z" />
<glyph unicode="&#x11a;" horiz-adv-x="1243" d="M168 161q0 -63 41 -112t100 -49h741q48 0 76.5 33.5t28.5 78.5t-28.5 79t-76.5 34h-597v401h535q49 0 78.5 33t29.5 78t-29 78t-79 33h-535v368h574q49 0 78 34t29 79t-29 79t-78 34h-711q-71 0 -109.5 -47.5t-38.5 -121.5v-1112zM333 1889q0 -28 23 -58l192 -253 q50 -61 107 -61q59 0 108 67l182 237q26 36 26 64q0 31 -21 51t-52 20q-49 0 -89 -58l-154 -203l-157 206q-40 56 -90 56q-31 0 -53 -19t-22 -49z" />
<glyph unicode="&#x11b;" horiz-adv-x="1145" d="M80 511q0 -247 142.5 -385t379.5 -138q211 0 369 133q32 28 32 68q0 35 -24 63t-55 28q-21 0 -39 -14q-141 -101 -265 -101q-273 0 -289 282h632q36 0 54 24t18 63q-1 99 -29 184t-82.5 153t-144 106.5t-205.5 38.5q-151 0 -265 -70t-171.5 -183.5t-57.5 -251.5z M276 1452q0 -28 23 -58l192 -253q50 -61 107 -61q59 0 108 67l182 237q26 36 26 64q0 31 -21 51t-52 20q-49 0 -89 -58l-154 -203l-157 206q-40 56 -90 56q-31 0 -53 -19t-22 -49zM333 588q9 109 72.5 186t175.5 77q115 0 173.5 -74t66.5 -189h-488z" />
<glyph unicode="&#x11e;" horiz-adv-x="1497" d="M108 728q0 -243 91 -414t254 -255.5t385 -84.5q151 0 419 59q75 18 106.5 60t31.5 133v420q0 135 -109 135h-387q-44 0 -68.5 -31.5t-24.5 -71.5q0 -43 26 -72.5t71 -29.5h209v-341q-132 -31 -260 -31q-441 0 -441 525q0 121 25 215t78 164.5t141 108t207 37.5 q141 0 349 -64q15 -8 34 -8q44 0 72 35.5t28 80.5q0 28 -16 54.5t-47 42.5q-184 88 -431 88q-183 0 -327 -59t-234 -163t-136 -239t-46 -294zM531 1819q0 -21 12 -52q37 -81 114.5 -124.5t181.5 -43.5q94 0 165 34.5t108 98.5q33 37 35 85q0 32 -21.5 51t-51.5 19 q-46 0 -77 -51q-28 -41 -63 -57t-95 -16t-95.5 16.5t-63.5 57.5q-30 50 -76 50q-29 0 -51 -18.5t-22 -49.5z" />
<glyph unicode="&#x11f;" horiz-adv-x="1226" d="M78 495q0 -229 130 -362.5t346 -133.5q213 0 298 161v-147q0 -142 -78 -211.5t-218 -69.5q-40 0 -81.5 7t-62.5 13t-66 21.5t-54 18.5q-16 6 -32 6q-35 0 -58 -26t-23 -60q0 -48 46 -76q54 -33 151.5 -55.5t204.5 -22.5q236 0 373.5 124t137.5 361v820q0 66 -33.5 103 t-85.5 37q-46 0 -78.5 -27.5t-37.5 -78.5v-46q-50 80 -119 122t-190 42q-217 0 -343.5 -144.5t-126.5 -375.5zM265 1377q0 -21 12 -52q37 -81 114.5 -124.5t181.5 -43.5q94 0 165 34.5t108 98.5q33 37 35 85q0 32 -21.5 51t-51.5 19q-46 0 -77 -51q-28 -41 -63 -57t-95 -16 t-95.5 16.5t-63.5 57.5q-30 50 -76 50q-29 0 -51 -18.5t-22 -49.5zM334 502q0 57 9 106.5t29 94t50 76t75 50t101 18.5q254 0 254 -347q0 -171 -69 -251.5t-184 -82.5q-114 2 -189.5 86.5t-75.5 249.5z" />
<glyph unicode="&#x122;" horiz-adv-x="1497" d="M108 728q0 -243 91 -414t254 -255.5t385 -84.5q151 0 419 59q75 18 106.5 60t31.5 133v420q0 135 -109 135h-387q-44 0 -68.5 -31.5t-24.5 -71.5q0 -43 26 -72.5t71 -29.5h209v-341q-132 -31 -260 -31q-441 0 -441 525q0 121 25 215t78 164.5t141 108t207 37.5 q141 0 349 -64q15 -8 34 -8q44 0 72 35.5t28 80.5q0 28 -16 54.5t-47 42.5q-184 88 -431 88q-183 0 -327 -59t-234 -163t-136 -239t-46 -294zM639 -615q0 -30 25 -31h90h3q38 0 53 43l161 443q3 12 3 18q0 35 -37 38h-148q-64 -2 -73 -56l-76 -443q-1 -3 -1 -12z" />
<glyph unicode="&#x123;" horiz-adv-x="1226" d="M78 495q0 -229 130 -362.5t346 -133.5q213 0 298 161v-147q0 -142 -78 -211.5t-218 -69.5q-40 0 -81.5 7t-62.5 13t-66 21.5t-54 18.5q-16 6 -32 6q-35 0 -58 -26t-23 -60q0 -48 46 -76q54 -33 151.5 -55.5t204.5 -22.5q236 0 373.5 124t137.5 361v820q0 66 -33.5 103 t-85.5 37q-46 0 -78.5 -27.5t-37.5 -78.5v-46q-50 80 -119 122t-190 42q-217 0 -343.5 -144.5t-126.5 -375.5zM334 502q0 57 9 106.5t29 94t50 76t75 50t101 18.5q254 0 254 -347q0 -171 -69 -251.5t-184 -82.5q-114 2 -189.5 86.5t-75.5 249.5zM455 1239q0 -35 37 -38h152 q64 2 73 56l84 491q1 3 1 12q0 30 -25 31h-90h-3q-20 0 -32 -10t-21 -33l-173 -491q-3 -12 -3 -18z" />
<glyph unicode="&#x12a;" horiz-adv-x="650" d="M-28 1767q0 -35 21 -59t59 -24h551q39 0 59.5 23.5t20.5 59.5t-21.5 59.5t-58.5 23.5h-549q-39 0 -60.5 -24t-21.5 -59zM181 150q0 -67 42 -108t100 -41q59 0 102 41t43 108v1145q0 67 -43 108t-101 41t-100.5 -41t-42.5 -108v-1145z" />
<glyph unicode="&#x12b;" horiz-adv-x="522" d="M-94 1320q0 -35 21 -59t59 -24h551q39 0 59.5 23.5t20.5 59.5t-21.5 59.5t-58.5 23.5h-549q-39 0 -60.5 -24t-21.5 -59zM134 145q0 -70 35 -107.5t89 -37.5q55 0 91.5 40t36.5 105v714q0 70 -35.5 108t-90.5 38q-52 0 -89 -34.5t-37 -94.5v-731z" />
<glyph unicode="&#x130;" horiz-adv-x="650" d="M181 150q0 -67 42 -108t100 -41q59 0 102 41t43 108v1145q0 67 -43 108t-101 41t-100.5 -41t-42.5 -108v-1145zM181 1755q0 -58 40 -98.5t103 -40.5t103 40.5t40 98.5q0 59 -40.5 99t-102.5 40q-63 0 -103 -41t-40 -98z" />
<glyph unicode="&#x131;" horiz-adv-x="520" d="M134 145q0 -70 35 -107.5t89 -37.5q55 0 91.5 40t36.5 105v714q0 70 -35.5 108t-90.5 38q-52 0 -89 -34.5t-37 -94.5v-731z" />
<glyph unicode="&#x136;" horiz-adv-x="1350" d="M170 147q0 -66 42 -106.5t101 -40.5q58 0 101 41t43 106v564l534 -618q25 -31 40 -47t39 -30.5t47 -14.5h2q55 0 98.5 39t43.5 93q0 53 -39 106l-469 523l422 457q39 47 39 97q0 52 -41 88.5t-93 36.5q-54 0 -117 -78l-506 -575v507q0 66 -43 107t-101 41t-100.5 -41 t-42.5 -107v-1148zM467 -615q0 -30 25 -31h90h3q38 0 53 43l161 443q3 12 3 18q0 35 -37 38h-148q-64 -2 -73 -56l-76 -443q-1 -3 -1 -12z" />
<glyph unicode="&#x137;" horiz-adv-x="1071" d="M134 141q0 -67 34.5 -104t88.5 -37q56 0 92 37t36 104v362l436 -464q36 -42 87 -42q46 0 81.5 33.5t35.5 78.5q0 39 -30 72l-345 360l302 290q28 29 28 69q0 45 -33 80.5t-75 35.5q-41 0 -73 -35l-414 -412v732q0 67 -35.5 104t-90.5 37t-90 -37t-35 -104v-1160z M334 -615q0 -30 25 -31h90h3q38 0 53 43l161 443q3 12 3 18q0 35 -37 38h-148q-64 -2 -73 -56l-76 -443q-1 -3 -1 -12z" />
<glyph unicode="&#x139;" horiz-adv-x="1152" d="M168 175q0 -72 41 -123.5t105 -51.5h706q49 0 78.5 34t29.5 79q0 46 -29.5 80.5t-78.5 34.5h-564l-1 1064q0 67 -42 108t-100 41q-59 0 -102 -41t-43 -108v-1117zM353 1670q0 -25 17 -41t41 -16q25 0 49 19l305 251q36 30 36 70q0 45 -37.5 79.5t-80.5 34.5 q-44 0 -83 -58l-227 -292q-20 -28 -20 -47z" />
<glyph unicode="&#x13a;" horiz-adv-x="542" d="M138 140q0 -67 34.5 -103.5t88.5 -36.5q56 0 92.5 37t36.5 103v1161q0 66 -36 103t-91 37t-90 -37t-35 -103v-1161zM235 1659q0 -25 17 -41t41 -16q25 0 49 19l305 251q36 30 36 70q0 45 -37.5 79.5t-80.5 34.5q-44 0 -83 -58l-227 -292q-20 -28 -20 -47z" />
<glyph unicode="&#x13b;" horiz-adv-x="1152" d="M168 175q0 -72 41 -123.5t105 -51.5h706q49 0 78.5 34t29.5 79q0 46 -29.5 80.5t-78.5 34.5h-564l-1 1064q0 67 -42 108t-100 41q-59 0 -102 -41t-43 -108v-1117zM448 -615q0 -30 25 -31h90h3q38 0 53 43l161 443q3 12 3 18q0 35 -37 38h-148q-64 -2 -73 -56l-76 -443 q-1 -3 -1 -12z" />
<glyph unicode="&#x13c;" horiz-adv-x="542" d="M57 -615q0 -30 25 -31h90h3q38 0 53 43l161 443q3 12 3 18q0 35 -37 38h-148q-64 -2 -73 -56l-76 -443q-1 -3 -1 -12zM138 140q0 -67 34.5 -103.5t88.5 -36.5q56 0 92.5 37t36.5 103v1161q0 66 -36 103t-91 37t-90 -37t-35 -103v-1161z" />
<glyph unicode="&#x13d;" horiz-adv-x="1152" d="M168 175q0 -72 41 -123.5t105 -51.5h706q49 0 78.5 34t29.5 79q0 46 -29.5 80.5t-78.5 34.5h-564l-1 1064q0 67 -42 108t-100 41q-59 0 -102 -41t-43 -108v-1117zM728 1015q0 -30 25 -31h90h3q38 0 53 43l161 443q3 12 3 18q0 35 -37 38h-148q-64 -2 -73 -56l-76 -443 q-1 -3 -1 -12z" />
<glyph unicode="&#x13e;" horiz-adv-x="542" d="M138 140q0 -67 34.5 -103.5t88.5 -36.5q56 0 92.5 37t36.5 103v1161q0 66 -36 103t-91 37t-90 -37t-35 -103v-1161zM574 1015q0 -30 25 -31h90h3q38 0 53 43l161 443q3 12 3 18q0 35 -37 38h-148q-64 -2 -73 -56l-76 -443q-1 -3 -1 -12z" />
<glyph unicode="&#x141;" horiz-adv-x="1178" d="M10 590q0 -38 24 -69t58 -31q16 0 43 14l33 21v-350q0 -72 41 -123.5t105 -51.5h706q49 0 78.5 34t29.5 79q0 46 -29.5 80.5t-78.5 34.5h-564v481l202 131q35 23 35 66q0 39 -26.5 72t-61.5 33q-20 0 -40 -13l-110 -70v364q0 67 -42 108t-100 41q-59 0 -102 -41t-43 -108 v-550l-120 -78q-38 -24 -38 -74z" />
<glyph unicode="&#x142;" horiz-adv-x="696" d="M71 642q0 -38 24 -69t58 -31q20 0 43 14l30 18v-434q0 -67 34.5 -103.5t88.5 -36.5q56 0 92.5 37t36.5 103v593l163 107q35 22 35 66q0 39 -26.5 72t-61.5 33q-20 0 -40 -13l-70 -45v348q0 66 -36 103t-91 37t-90 -37t-35 -103v-510l-117 -75q-38 -24 -38 -74z" />
<glyph unicode="&#x143;" horiz-adv-x="1566" d="M164 126q0 -57 38.5 -91.5t89.5 -34.5q52 0 91 35t39 91v886l653 -904q33 -47 83 -77.5t93 -30.5q68 0 110 54.5t42 140.5v1121q0 57 -38.5 92t-89.5 35q-52 0 -90.5 -35.5t-38.5 -91.5v-886l-658 911q-31 47 -79.5 74t-93.5 27q-64 0 -107.5 -46.5t-43.5 -126.5v-1143z M781 1663q0 -25 17 -41t41 -16q25 0 49 19l305 251q36 30 36 70q0 45 -37.5 79.5t-80.5 34.5q-44 0 -83 -58l-227 -292q-20 -28 -20 -47z" />
<glyph unicode="&#x144;" d="M132 138q0 -65 35 -101.5t90 -36.5t90.5 36.5t35.5 101.5v423q0 127 73 206t173 79q83 0 136.5 -54.5t53.5 -157.5v-496q0 -65 35 -101.5t88 -36.5q56 0 92 36.5t36 101.5v495q0 96 -29 171t-79 120.5t-113.5 69t-135.5 23.5q-117 0 -201.5 -44t-128.5 -129v35 q0 59 -35 91.5t-89 32.5q-55 0 -91 -33t-36 -93v-739zM571 1208q0 -25 17 -41t41 -16q25 0 49 19l305 251q36 30 36 70q0 45 -37.5 79.5t-80.5 34.5q-44 0 -83 -58l-227 -292q-20 -28 -20 -47z" />
<glyph unicode="&#x145;" horiz-adv-x="1566" d="M164 126q0 -57 38.5 -91.5t89.5 -34.5q52 0 91 35t39 91v886l653 -904q33 -47 83 -77.5t93 -30.5q68 0 110 54.5t42 140.5v1121q0 57 -38.5 92t-89.5 35q-52 0 -90.5 -35.5t-38.5 -91.5v-886l-658 911q-31 47 -79.5 74t-93.5 27q-64 0 -107.5 -46.5t-43.5 -126.5v-1143z M588 -615q0 -30 25 -31h90h3q38 0 53 43l161 443q3 12 3 18q0 35 -37 38h-148q-64 -2 -73 -56l-76 -443q-1 -3 -1 -12z" />
<glyph unicode="&#x146;" d="M132 138q0 -65 35 -101.5t90 -36.5t90.5 36.5t35.5 101.5v423q0 127 73 206t173 79q83 0 136.5 -54.5t53.5 -157.5v-496q0 -65 35 -101.5t88 -36.5q56 0 92 36.5t36 101.5v495q0 96 -29 171t-79 120.5t-113.5 69t-135.5 23.5q-117 0 -201.5 -44t-128.5 -129v35 q0 59 -35 91.5t-89 32.5q-55 0 -91 -33t-36 -93v-739zM389 -615q0 -30 25 -31h90h3q38 0 53 43l161 443q3 12 3 18q0 35 -37 38h-148q-64 -2 -73 -56l-76 -443q-1 -3 -1 -12z" />
<glyph unicode="&#x147;" horiz-adv-x="1566" d="M164 126q0 -57 38.5 -91.5t89.5 -34.5q52 0 91 35t39 91v886l653 -904q33 -47 83 -77.5t93 -30.5q68 0 110 54.5t42 140.5v1121q0 57 -38.5 92t-89.5 35q-52 0 -90.5 -35.5t-38.5 -91.5v-886l-658 911q-31 47 -79.5 74t-93.5 27q-64 0 -107.5 -46.5t-43.5 -126.5v-1143z M517 1897q0 -28 23 -58l192 -253q50 -61 107 -61q59 0 108 67l182 237q26 36 26 64q0 31 -21 51t-52 20q-49 0 -89 -58l-154 -203l-157 206q-40 56 -90 56q-31 0 -53 -19t-22 -49z" />
<glyph unicode="&#x148;" d="M132 138q0 -65 35 -101.5t90 -36.5t90.5 36.5t35.5 101.5v423q0 127 73 206t173 79q83 0 136.5 -54.5t53.5 -157.5v-496q0 -65 35 -101.5t88 -36.5q56 0 92 36.5t36 101.5v495q0 96 -29 171t-79 120.5t-113.5 69t-135.5 23.5q-117 0 -201.5 -44t-128.5 -129v35 q0 59 -35 91.5t-89 32.5q-55 0 -91 -33t-36 -93v-739zM307 1442q0 -28 23 -58l192 -253q50 -61 107 -61q59 0 108 67l182 237q26 36 26 64q0 31 -21 51t-52 20q-49 0 -89 -58l-154 -203l-157 206q-40 56 -90 56q-31 0 -53 -19t-22 -49z" />
<glyph unicode="&#x150;" horiz-adv-x="1619" d="M104 728q0 -352 183 -553t518 -201q337 0 519 201t182 553t-182 553.5t-519 201.5q-335 0 -518 -201.5t-183 -553.5zM406 728q0 253 99 390.5t300 137.5q202 0 300.5 -137t98.5 -391q0 -255 -99 -391.5t-300 -136.5q-202 0 -300.5 136.5t-98.5 391.5zM559 1599 q0 -24 17 -40t41 -16q25 0 48 19l311 254q33 27 33 66q0 42 -37.5 77t-80.5 35q-45 0 -76 -48l-241 -306q-13 -17 -15 -41zM949 1601q0 -25 16 -42t41 -17q24 0 48 20l312 254q32 29 32 65q0 42 -37.5 77.5t-80.5 35.5q-45 0 -76 -47l-241 -307q-14 -18 -14 -39z" />
<glyph unicode="&#x151;" horiz-adv-x="1215" d="M80 501q0 -101 32 -191t93.5 -163t164.5 -116t234 -43q106 0 194 29t148.5 77.5t102 115t61 139.5t19.5 152q0 83 -20.5 159t-63.5 141.5t-104 113t-147.5 75t-189.5 27.5q-105 0 -192.5 -28.5t-148 -77.5t-102.5 -115t-61.5 -140.5t-19.5 -154.5zM331 501 q0 164 71.5 254.5t201.5 90.5t202 -91t72 -254q0 -162 -72 -252t-202 -90q-129 0 -201 90t-72 252zM357 1148q0 -24 17 -40t41 -16q25 0 48 19l311 254q33 27 33 66q0 42 -37.5 77t-80.5 35q-45 0 -76 -48l-241 -306q-13 -17 -15 -41zM747 1150q0 -25 16 -42t41 -17 q24 0 48 20l312 254q32 29 32 65q0 42 -37.5 77.5t-80.5 35.5q-45 0 -76 -47l-241 -307q-14 -18 -14 -39z" />
<glyph unicode="&#x152;" horiz-adv-x="1997" d="M100 720q0 -344 169.5 -543t457.5 -199q59 0 200 10.5t146 10.5h706q53 0 83 30t30 77q0 51 -34 79.5t-90 28.5h-463v416h403q59 0 91.5 28t32.5 78q0 51 -32.5 79.5t-85.5 28.5h-409v383h444q60 0 92 28.5t32 79.5q0 48 -30.5 77.5t-83.5 29.5h-656q-5 0 -142 10 t-211 10q-306 0 -478 -197.5t-172 -544.5zM384 723q0 158 38.5 276.5t121 189.5t202.5 71q79 0 146.5 -4.5t98 -9.5t39.5 -8v-1032q-6 -4 -40 -9t-101.5 -11t-143.5 -7q-93 0 -163.5 41.5t-113 116t-63.5 171.5t-21 215z" />
<glyph unicode="&#x153;" horiz-adv-x="1862" d="M74 501q0 -107 32 -200.5t94 -166.5t161 -115t224 -42q232 0 358 191q120 -198 356 -198q100 0 193 23t156 69.5t63 105.5q0 30 -17.5 52.5t-44.5 22.5q-15 0 -33 -8q-58 -27 -83 -38t-81 -26t-104 -15q-276 0 -281 299h619q39 0 60.5 20.5t21.5 54.5q-4 228 -121 365.5 t-340 137.5q-231 0 -361 -192q-125 187 -361 187q-126 0 -225 -42t-160.5 -115.5t-93.5 -167.5t-32 -202zM331 501q0 74 14.5 137.5t44.5 114t80 79.5t115 29q66 0 115 -30t77.5 -83t42 -117t13.5 -139q-2 -73 -17 -134.5t-43.5 -111t-76.5 -77.5t-111 -28q-66 0 -116 29.5 t-79.5 80.5t-44 114t-14.5 136zM1064 591q9 125 69.5 202.5t165.5 77.5q111 0 170.5 -73.5t67.5 -206.5h-473z" />
<glyph unicode="&#x154;" horiz-adv-x="1409" d="M168 149q0 -69 42 -108.5t101 -39.5t101.5 39t42.5 109v469h262h4q70 0 115.5 -13t73.5 -43.5t41 -72.5t20 -109l25 -231q7 -73 50 -110.5t103 -37.5q58 0 96.5 38t38.5 106q0 17 -1 26l-28 236q-16 142 -84.5 224.5t-207.5 109.5v4q163 26 244 114.5t81 216.5 q0 367 -527 367h-441q-63 0 -107.5 -41.5t-44.5 -105.5v-1147zM454 831v396h244h21q36 0 59 -1t56 -4.5t53.5 -11t44.5 -21.5t37.5 -34t22.5 -50.5t9 -69.5q0 -41 -11 -73t-28 -53t-45.5 -36t-55 -23t-65 -12.5t-67 -5.5t-70.5 -1h-205zM654 1655q0 -25 17 -41t41 -16 q25 0 49 19l305 251q36 30 36 70q0 45 -37.5 79.5t-80.5 34.5q-44 0 -83 -58l-227 -292q-20 -28 -20 -47z" />
<glyph unicode="&#x155;" horiz-adv-x="780" d="M133 137q0 -66 35.5 -101.5t89.5 -35.5q56 0 91.5 35t35.5 100v422q0 71 23 120t65 73t87.5 33.5t104.5 9.5q39 0 62 32t23 74q0 44 -25 75t-71 31q-94 0 -169.5 -64.5t-102.5 -154.5l3 103q1 53 -36.5 83.5t-88.5 30.5q-52 0 -89.5 -31.5t-37.5 -88.5v-746zM317 1218 q0 -25 17 -41t41 -16q25 0 49 19l305 251q36 30 36 70q0 45 -37.5 79.5t-80.5 34.5q-44 0 -83 -58l-227 -292q-20 -28 -20 -47z" />
<glyph unicode="&#x158;" horiz-adv-x="1409" d="M168 149q0 -69 42 -108.5t101 -39.5t101.5 39t42.5 109v469h262h4q70 0 115.5 -13t73.5 -43.5t41 -72.5t20 -109l25 -231q7 -73 50 -110.5t103 -37.5q58 0 96.5 38t38.5 106q0 17 -1 26l-28 236q-16 142 -84.5 224.5t-207.5 109.5v4q163 26 244 114.5t81 216.5 q0 367 -527 367h-441q-63 0 -107.5 -41.5t-44.5 -105.5v-1147zM390 1889q0 -28 23 -58l192 -253q50 -61 107 -61q59 0 108 67l182 237q26 36 26 64q0 31 -21 51t-52 20q-49 0 -89 -58l-154 -203l-157 206q-40 56 -90 56q-31 0 -53 -19t-22 -49zM454 831v396h244h21 q36 0 59 -1t56 -4.5t53.5 -11t44.5 -21.5t37.5 -34t22.5 -50.5t9 -69.5q0 -41 -11 -73t-28 -53t-45.5 -36t-55 -23t-65 -12.5t-67 -5.5t-70.5 -1h-205z" />
<glyph unicode="&#x159;" horiz-adv-x="780" d="M53 1452q0 -28 23 -58l192 -253q50 -61 107 -61q59 0 108 67l182 237q26 36 26 64q0 31 -21 51t-52 20q-49 0 -89 -58l-154 -203l-157 206q-40 56 -90 56q-31 0 -53 -19t-22 -49zM133 137q0 -66 35.5 -101.5t89.5 -35.5q56 0 91.5 35t35.5 100v422q0 71 23 120t65 73 t87.5 33.5t104.5 9.5q39 0 62 32t23 74q0 44 -25 75t-71 31q-94 0 -169.5 -64.5t-102.5 -154.5l3 103q1 53 -36.5 83.5t-88.5 30.5q-52 0 -89.5 -31.5t-37.5 -88.5v-746z" />
<glyph unicode="&#x15a;" horiz-adv-x="1310" d="M116 178q0 -37 23 -54q193 -150 519 -150q262 0 417.5 117.5t155.5 319.5q0 87 -26 153.5t-80.5 115.5t-123 83t-168.5 66q-5 2 -146 43t-146 43q-75 25 -111.5 64.5t-36.5 102.5q0 49 24 84t67 54t93.5 27.5t112.5 8.5q187 0 348 -92q26 -14 48 -14q42 0 72 36.5 t30 81.5q0 44 -31 72q-72 62 -207 102.5t-278 40.5q-245 0 -399.5 -112t-154.5 -303q0 -148 75.5 -234.5t246.5 -145.5l330 -110q93 -30 137 -73t44 -119q0 -92 -81.5 -139t-212.5 -47q-205 0 -392 112q-17 10 -35 10q-43 0 -78.5 -47.5t-35.5 -96.5zM601 1655q0 -25 17 -41 t41 -16q25 0 49 19l305 251q36 30 36 70q0 45 -37.5 79.5t-80.5 34.5q-44 0 -83 -58l-227 -292q-20 -28 -20 -47z" />
<glyph unicode="&#x15b;" horiz-adv-x="1001" d="M96 738q0 -57 15 -99.5t39 -71t69 -52t89 -38.5t115 -34l156 -40q139 -34 139 -119q0 -48 -32.5 -78.5t-78 -42t-103.5 -11.5q-59 0 -118 16.5t-85.5 29.5t-70.5 38q-27 15 -52 15q-35 0 -57.5 -25t-22.5 -58q0 -41 36 -67q159 -116 392 -116q180 0 292.5 81t112.5 234 q0 122 -74.5 191t-235.5 109l-154 39q-83 19 -112.5 41.5t-29.5 69.5q0 53 54 78.5t131 25.5q23 0 45.5 -2t45.5 -6.5t39.5 -8t39.5 -11t31.5 -10t29.5 -10.5t22 -8q22 -8 39 -8q34 0 54.5 22.5t20.5 54.5q0 54 -54 80q-155 75 -328 75q-179 0 -289 -73.5t-110 -210.5z M448 1221q0 -25 17 -41t41 -16q25 0 49 19l305 251q36 30 36 70q0 45 -37.5 79.5t-80.5 34.5q-44 0 -83 -58l-227 -292q-20 -28 -20 -47z" />
<glyph unicode="&#x15e;" horiz-adv-x="1310" d="M116 178q0 -37 23 -54q193 -150 519 -150q262 0 417.5 117.5t155.5 319.5q0 87 -26 153.5t-80.5 115.5t-123 83t-168.5 66q-5 2 -146 43t-146 43q-75 25 -111.5 64.5t-36.5 102.5q0 49 24 84t67 54t93.5 27.5t112.5 8.5q187 0 348 -92q26 -14 48 -14q42 0 72 36.5 t30 81.5q0 44 -31 72q-72 62 -207 102.5t-278 40.5q-245 0 -399.5 -112t-154.5 -303q0 -148 75.5 -234.5t246.5 -145.5l330 -110q93 -30 137 -73t44 -119q0 -92 -81.5 -139t-212.5 -47q-205 0 -392 112q-17 10 -35 10q-43 0 -78.5 -47.5t-35.5 -96.5zM421 -345 q0 -39 71.5 -59.5t164.5 -20.5q92 0 158.5 42t68.5 121q0 80 -49 118t-127 39q-11 0 -49 -2l43 114h-90l-52 -130q-7 -18 -7 -28q0 -38 50 -38q4 1 12 2t12 2q42 0 72 -17.5t30 -52.5q0 -80 -102 -80q-15 0 -31 2t-35 6.5t-30 7.5t-33.5 9.5t-28.5 8.5t-10 2 q-18 0 -28 -13.5t-10 -32.5z" />
<glyph unicode="&#x15f;" horiz-adv-x="1001" d="M96 738q0 -57 15 -99.5t39 -71t69 -52t89 -38.5t115 -34l156 -40q139 -34 139 -119q0 -48 -32.5 -78.5t-78 -42t-103.5 -11.5q-59 0 -118 16.5t-85.5 29.5t-70.5 38q-27 15 -52 15q-35 0 -57.5 -25t-22.5 -58q0 -41 36 -67q159 -116 392 -116q180 0 292.5 81t112.5 234 q0 122 -74.5 191t-235.5 109l-154 39q-83 19 -112.5 41.5t-29.5 69.5q0 53 54 78.5t131 25.5q23 0 45.5 -2t45.5 -6.5t39.5 -8t39.5 -11t31.5 -10t29.5 -10.5t22 -8q22 -8 39 -8q34 0 54.5 22.5t20.5 54.5q0 54 -54 80q-155 75 -328 75q-179 0 -289 -73.5t-110 -210.5z M269 -349q0 -39 71.5 -59.5t164.5 -20.5q92 0 158.5 42t68.5 121q0 80 -49 118t-127 39q-11 0 -49 -2l43 114h-90l-52 -130q-7 -18 -7 -28q0 -38 50 -38q4 1 12 2t12 2q42 0 72 -17.5t30 -52.5q0 -80 -102 -80q-15 0 -31 2t-35 6.5t-30 7.5t-33.5 9.5t-28.5 8.5t-10 2 q-18 0 -28 -13.5t-10 -32.5z" />
<glyph unicode="&#x160;" horiz-adv-x="1310" d="M116 178q0 -37 23 -54q193 -150 519 -150q262 0 417.5 117.5t155.5 319.5q0 87 -26 153.5t-80.5 115.5t-123 83t-168.5 66q-5 2 -146 43t-146 43q-75 25 -111.5 64.5t-36.5 102.5q0 49 24 84t67 54t93.5 27.5t112.5 8.5q187 0 348 -92q26 -14 48 -14q42 0 72 36.5 t30 81.5q0 44 -31 72q-72 62 -207 102.5t-278 40.5q-245 0 -399.5 -112t-154.5 -303q0 -148 75.5 -234.5t246.5 -145.5l330 -110q93 -30 137 -73t44 -119q0 -92 -81.5 -139t-212.5 -47q-205 0 -392 112q-17 10 -35 10q-43 0 -78.5 -47.5t-35.5 -96.5zM337 1889q0 -28 23 -58 l192 -253q50 -61 107 -61q59 0 108 67l182 237q26 36 26 64q0 31 -21 51t-52 20q-49 0 -89 -58l-154 -203l-157 206q-40 56 -90 56q-31 0 -53 -19t-22 -49z" />
<glyph unicode="&#x161;" horiz-adv-x="679" d="M96 738q0 -57 15 -99.5t39 -71t69 -52t89 -38.5t115 -34l156 -40q139 -34 139 -119q0 -48 -32.5 -78.5t-78 -42t-103.5 -11.5q-59 0 -118 16.5t-85.5 29.5t-70.5 38q-27 15 -52 15q-35 0 -57.5 -25t-22.5 -58q0 -41 36 -67q159 -116 392 -116q180 0 292.5 81t112.5 234 q0 122 -74.5 191t-235.5 109l-154 39q-83 19 -112.5 41.5t-29.5 69.5q0 53 54 78.5t131 25.5q23 0 45.5 -2t45.5 -6.5t39.5 -8t39.5 -11t31.5 -10t29.5 -10.5t22 -8q22 -8 39 -8q34 0 54.5 22.5t20.5 54.5q0 54 -54 80q-155 75 -328 75q-179 0 -289 -73.5t-110 -210.5z M207 1453q0 -28 23 -58l192 -253q50 -61 107 -61q59 0 108 67l182 237q26 36 26 64q0 31 -21 51t-52 20q-49 0 -89 -58l-154 -203l-157 206q-40 56 -90 56q-31 0 -53 -19t-22 -49z" />
<glyph unicode="&#x162;" horiz-adv-x="1195" d="M22 1328q0 -46 30 -79.5t81 -33.5h326v-1066q0 -67 42.5 -108.5t100.5 -41.5q59 0 101.5 41.5t42.5 108.5v1066h325q50 0 80 34t30 80q0 45 -30.5 79.5t-79.5 34.5h-938q-50 0 -80.5 -34.5t-30.5 -80.5zM361 -345q0 -39 71.5 -59.5t164.5 -20.5q92 0 158.5 42t68.5 121 q0 80 -49 118t-127 39q-11 0 -49 -2l43 114h-90l-52 -130q-7 -18 -7 -28q0 -38 50 -38q4 1 12 2t12 2q42 0 72 -17.5t30 -52.5q0 -80 -102 -80q-15 0 -31 2t-35 6.5t-30 7.5t-33.5 9.5t-28.5 8.5t-10 2q-18 0 -28 -13.5t-10 -32.5z" />
<glyph unicode="&#x163;" horiz-adv-x="790" d="M22 915q0 -39 23.5 -62.5t66.5 -23.5h97v-517q0 -155 76.5 -237.5t212.5 -83.5h22q36 0 58 1t52.5 3.5t48.5 9.5t35.5 18t25.5 29t8 42q0 38 -24 66t-65 28h-7l-71 -4h-11q-61 0 -85 47t-24 143v455h160q43 0 65 22t22 60q0 39 -22 62.5t-64 23.5h-161v255q0 58 -24.5 87 t-68.5 29q-55 0 -86.5 -34.5t-37.5 -88.5l-30 -248h-105q-43 0 -65 -22.5t-22 -59.5zM231 -346q0 -39 71.5 -59.5t164.5 -20.5q92 0 158.5 42t68.5 121q0 80 -49 118t-127 39q-11 0 -49 -2l43 114h-90l-52 -130q-7 -18 -7 -28q0 -38 50 -38q4 1 12 2t12 2q42 0 72 -17.5 t30 -52.5q0 -80 -102 -80q-15 0 -31 2t-35 6.5t-30 7.5t-33.5 9.5t-28.5 8.5t-10 2q-18 0 -28 -13.5t-10 -32.5z" />
<glyph unicode="&#x164;" horiz-adv-x="1195" d="M22 1328q0 -46 30 -79.5t81 -33.5h326v-1066q0 -67 42.5 -108.5t100.5 -41.5q59 0 101.5 41.5t42.5 108.5v1066h325q50 0 80 34t30 80q0 45 -30.5 79.5t-79.5 34.5h-938q-50 0 -80.5 -34.5t-30.5 -80.5zM288 1899q0 -28 23 -58l192 -253q50 -61 107 -61q59 0 108 67 l182 237q26 36 26 64q0 31 -21 51t-52 20q-49 0 -89 -58l-154 -203l-157 206q-40 56 -90 56q-31 0 -53 -19t-22 -49z" />
<glyph unicode="&#x165;" horiz-adv-x="790" d="M22 915q0 -39 23.5 -62.5t66.5 -23.5h97v-517q0 -155 76.5 -237.5t212.5 -83.5h22q36 0 58 1t52.5 3.5t48.5 9.5t35.5 18t25.5 29t8 42q0 38 -24 66t-65 28h-7l-71 -4h-11q-61 0 -85 47t-24 143v455h160q43 0 65 22t22 60q0 39 -22 62.5t-64 23.5h-161v255q0 58 -24.5 87 t-68.5 29q-55 0 -86.5 -34.5t-37.5 -88.5l-30 -248h-105q-43 0 -65 -22.5t-22 -59.5zM615 1195q0 -30 25 -31h90h3q38 0 53 43l161 443q3 12 3 18q0 35 -37 38h-148q-64 -2 -73 -56l-76 -443q-1 -3 -1 -12z" />
<glyph unicode="&#x16a;" horiz-adv-x="1513" d="M162 498q0 -129 46 -230.5t128 -165t188.5 -96t232.5 -32.5t233.5 33t189.5 96.5t128.5 164.5t46.5 230v801q0 67 -42.5 108t-100.5 41q-59 0 -101.5 -41t-42.5 -108v-794q0 -78 -26.5 -138.5t-71.5 -95.5t-99 -53t-114 -18t-113.5 18t-97.5 53t-70.5 95.5t-26.5 138.5 v794q0 67 -42.5 108t-101.5 41t-101 -41t-42 -108v-801zM407 1767q0 -35 21 -59t59 -24h551q39 0 59.5 23.5t20.5 59.5t-21.5 59.5t-58.5 23.5h-549q-39 0 -60.5 -24t-21.5 -59z" />
<glyph unicode="&#x16b;" d="M124 371q0 -95 29.5 -170t80.5 -120.5t114.5 -69t135.5 -23.5q237 0 327 172v-37q0 -59 35 -91t89 -32q55 0 91 33t36 93v738q0 66 -35 102.5t-90 36.5t-90.5 -36.5t-35.5 -102.5v-420q0 -127 -73.5 -206t-174.5 -79q-82 0 -135 54.5t-53 157.5v493q0 66 -35 102.5 t-88 36.5q-56 0 -92 -36.5t-36 -102.5v-493zM235 1324q0 -35 21 -59t59 -24h551q39 0 59.5 23.5t20.5 59.5t-21.5 59.5t-58.5 23.5h-549q-39 0 -60.5 -24t-21.5 -59z" />
<glyph unicode="&#x16e;" horiz-adv-x="1513" d="M162 498q0 -129 46 -230.5t128 -165t188.5 -96t232.5 -32.5t233.5 33t189.5 96.5t128.5 164.5t46.5 230v801q0 67 -42.5 108t-100.5 41q-59 0 -101.5 -41t-42.5 -108v-794q0 -78 -26.5 -138.5t-71.5 -95.5t-99 -53t-114 -18t-113.5 18t-97.5 53t-70.5 95.5t-26.5 138.5 v794q0 67 -42.5 108t-101.5 41t-101 -41t-42 -108v-801zM551 1788q0 -92 59 -150t152 -58q92 0 151 58.5t59 149.5t-59 149.5t-151 58.5q-93 0 -152 -58t-59 -150zM658 1788q0 44 29 72.5t75 28.5q45 0 74.5 -28.5t29.5 -72.5t-29.5 -72t-74.5 -28q-46 0 -75 28t-29 72z" />
<glyph unicode="&#x16f;" d="M124 371q0 -95 29.5 -170t80.5 -120.5t114.5 -69t135.5 -23.5q237 0 327 172v-37q0 -59 35 -91t89 -32q55 0 91 33t36 93v738q0 66 -35 102.5t-90 36.5t-90.5 -36.5t-35.5 -102.5v-420q0 -127 -73.5 -206t-174.5 -79q-82 0 -135 54.5t-53 157.5v493q0 66 -35 102.5 t-88 36.5q-56 0 -92 -36.5t-36 -102.5v-493zM379 1345q0 -92 59 -150t152 -58q92 0 151 58.5t59 149.5t-59 149.5t-151 58.5q-93 0 -152 -58t-59 -150zM486 1345q0 44 29 72.5t75 28.5q45 0 74.5 -28.5t29.5 -72.5t-29.5 -72t-74.5 -28q-46 0 -75 28t-29 72z" />
<glyph unicode="&#x170;" horiz-adv-x="1513" d="M162 498q0 -129 46 -230.5t128 -165t188.5 -96t232.5 -32.5t233.5 33t189.5 96.5t128.5 164.5t46.5 230v801q0 67 -42.5 108t-100.5 41q-59 0 -101.5 -41t-42.5 -108v-794q0 -78 -26.5 -138.5t-71.5 -95.5t-99 -53t-114 -18t-113.5 18t-97.5 53t-70.5 95.5t-26.5 138.5 v794q0 67 -42.5 108t-101.5 41t-101 -41t-42 -108v-801zM514 1591q0 -24 17 -40t41 -16q25 0 48 19l311 254q33 27 33 66q0 42 -37.5 77t-80.5 35q-45 0 -76 -48l-241 -306q-13 -17 -15 -41zM904 1593q0 -25 16 -42t41 -17q24 0 48 20l312 254q32 29 32 65q0 42 -37.5 77.5 t-80.5 35.5q-45 0 -76 -47l-241 -307q-14 -18 -14 -39z" />
<glyph unicode="&#x171;" d="M124 371q0 -95 29.5 -170t80.5 -120.5t114.5 -69t135.5 -23.5q237 0 327 172v-37q0 -59 35 -91t89 -32q55 0 91 33t36 93v738q0 66 -35 102.5t-90 36.5t-90.5 -36.5t-35.5 -102.5v-420q0 -127 -73.5 -206t-174.5 -79q-82 0 -135 54.5t-53 157.5v493q0 66 -35 102.5 t-88 36.5q-56 0 -92 -36.5t-36 -102.5v-493zM342 1148q0 -24 17 -40t41 -16q25 0 48 19l311 254q33 27 33 66q0 42 -37.5 77t-80.5 35q-45 0 -76 -48l-241 -306q-13 -17 -15 -41zM732 1150q0 -25 16 -42t41 -17q24 0 48 20l312 254q32 29 32 65q0 42 -37.5 77.5t-80.5 35.5 q-45 0 -76 -47l-241 -307q-14 -18 -14 -39z" />
<glyph unicode="&#x178;" horiz-adv-x="1308" d="M69 1304q0 -37 20 -71l417 -659v-428q0 -69 42.5 -107.5t101.5 -38.5t101 38.5t42 107.5v437l423 674q22 37 22 71q0 47 -36 79t-83 32q-73 0 -112 -70l-343 -565l-330 550q-48 85 -127 85q-55 0 -96.5 -40t-41.5 -95zM328 1708q0 -54 38 -90t92 -36q56 0 93.5 37 t37.5 89t-37.5 89t-93.5 37t-93 -37.5t-37 -88.5zM755 1708q0 -54 38 -90t93 -36q54 0 92 37t38 89q0 53 -38 89.5t-92 36.5q-57 0 -94 -37.5t-37 -88.5z" />
<glyph unicode="&#x179;" horiz-adv-x="1206" d="M79 113q0 -48 34 -80.5t98 -32.5h836q48 0 76.5 34t28.5 79q0 46 -28 79t-77 33h-623l698 1005q34 51 34 101q0 51 -34.5 81.5t-91.5 30.5h-833q-48 0 -76.5 -33.5t-28.5 -79.5q0 -45 28.5 -79.5t76.5 -34.5h610l-695 -1002q-33 -53 -33 -101zM581 1655q0 -25 17 -41 t41 -16q25 0 49 19l305 251q36 30 36 70q0 45 -37.5 79.5t-80.5 34.5q-44 0 -83 -58l-227 -292q-20 -28 -20 -47z" />
<glyph unicode="&#x17a;" horiz-adv-x="977" d="M73 100q0 -46 31.5 -73t82.5 -27h612q49 0 75.5 26.5t26.5 69.5q0 38 -24.5 66t-68.5 28h-430l491 627q35 48 35 93t-33 69.5t-93 24.5h-585q-49 0 -75 -26.5t-26 -69.5q0 -44 27 -70t74 -26h405l-492 -623q-33 -42 -33 -89zM437 1218q0 -25 17 -41t41 -16q25 0 49 19 l305 251q36 30 36 70q0 45 -37.5 79.5t-80.5 34.5q-44 0 -83 -58l-227 -292q-20 -28 -20 -47z" />
<glyph unicode="&#x17b;" horiz-adv-x="1206" d="M79 113q0 -48 34 -80.5t98 -32.5h836q48 0 76.5 34t28.5 79q0 46 -28 79t-77 33h-623l698 1005q34 51 34 101q0 51 -34.5 81.5t-91.5 30.5h-833q-48 0 -76.5 -33.5t-28.5 -79.5q0 -45 28.5 -79.5t76.5 -34.5h610l-695 -1002q-33 -53 -33 -101zM493 1755q0 -58 40 -98.5 t103 -40.5t103 40.5t40 98.5q0 59 -40.5 99t-102.5 40q-63 0 -103 -41t-40 -98z" />
<glyph unicode="&#x17c;" horiz-adv-x="977" d="M73 100q0 -46 31.5 -73t82.5 -27h612q49 0 75.5 26.5t26.5 69.5q0 38 -24.5 66t-68.5 28h-430l491 627q35 48 35 93t-33 69.5t-93 24.5h-585q-49 0 -75 -26.5t-26 -69.5q0 -44 27 -70t74 -26h405l-492 -623q-33 -42 -33 -89zM349 1318q0 -58 40 -98.5t103 -40.5t103 40.5 t40 98.5q0 59 -40.5 99t-102.5 40q-63 0 -103 -41t-40 -98z" />
<glyph unicode="&#x17d;" horiz-adv-x="1206" d="M79 113q0 -48 34 -80.5t98 -32.5h836q48 0 76.5 34t28.5 79q0 46 -28 79t-77 33h-623l698 1005q34 51 34 101q0 51 -34.5 81.5t-91.5 30.5h-833q-48 0 -76.5 -33.5t-28.5 -79.5q0 -45 28.5 -79.5t76.5 -34.5h610l-695 -1002q-33 -53 -33 -101zM317 1889q0 -28 23 -58 l192 -253q50 -61 107 -61q59 0 108 67l182 237q26 36 26 64q0 31 -21 51t-52 20q-49 0 -89 -58l-154 -203l-157 206q-40 56 -90 56q-31 0 -53 -19t-22 -49z" />
<glyph unicode="&#x17e;" horiz-adv-x="977" d="M73 100q0 -46 31.5 -73t82.5 -27h612q49 0 75.5 26.5t26.5 69.5q0 38 -24.5 66t-68.5 28h-430l491 627q35 48 35 93t-33 69.5t-93 24.5h-585q-49 0 -75 -26.5t-26 -69.5q0 -44 27 -70t74 -26h405l-492 -623q-33 -42 -33 -89zM173 1452q0 -28 23 -58l192 -253 q50 -61 107 -61q59 0 108 67l182 237q26 36 26 64q0 31 -21 51t-52 20q-49 0 -89 -58l-154 -203l-157 206q-40 56 -90 56q-31 0 -53 -19t-22 -49z" />
<glyph unicode="&#x218;" horiz-adv-x="1310" d="M116 178q0 -37 23 -54q193 -150 519 -150q262 0 417.5 117.5t155.5 319.5q0 87 -26 153.5t-80.5 115.5t-123 83t-168.5 66q-5 2 -146 43t-146 43q-75 25 -111.5 64.5t-36.5 102.5q0 49 24 84t67 54t93.5 27.5t112.5 8.5q187 0 348 -92q26 -14 48 -14q42 0 72 36.5 t30 81.5q0 44 -31 72q-72 62 -207 102.5t-278 40.5q-245 0 -399.5 -112t-154.5 -303q0 -148 75.5 -234.5t246.5 -145.5l330 -110q93 -30 137 -73t44 -119q0 -92 -81.5 -139t-212.5 -47q-205 0 -392 112q-17 10 -35 10q-43 0 -78.5 -47.5t-35.5 -96.5zM439 -611q0 -30 25 -31 h90h3q38 0 53 43l161 443q3 12 3 18q0 35 -37 38h-148q-64 -2 -73 -56l-76 -443q-1 -3 -1 -12z" />
<glyph unicode="&#x219;" horiz-adv-x="1001" d="M96 738q0 -57 15 -99.5t39 -71t69 -52t89 -38.5t115 -34l156 -40q139 -34 139 -119q0 -48 -32.5 -78.5t-78 -42t-103.5 -11.5q-59 0 -118 16.5t-85.5 29.5t-70.5 38q-27 15 -52 15q-35 0 -57.5 -25t-22.5 -58q0 -41 36 -67q159 -116 392 -116q180 0 292.5 81t112.5 234 q0 122 -74.5 191t-235.5 109l-154 39q-83 19 -112.5 41.5t-29.5 69.5q0 53 54 78.5t131 25.5q23 0 45.5 -2t45.5 -6.5t39.5 -8t39.5 -11t31.5 -10t29.5 -10.5t22 -8q22 -8 39 -8q34 0 54.5 22.5t20.5 54.5q0 54 -54 80q-155 75 -328 75q-179 0 -289 -73.5t-110 -210.5z M287 -615q0 -30 25 -31h90h3q38 0 53 43l161 443q3 12 3 18q0 35 -37 38h-148q-64 -2 -73 -56l-76 -443q-1 -3 -1 -12z" />
<glyph unicode="&#x21a;" horiz-adv-x="1195" d="M22 1328q0 -46 30 -79.5t81 -33.5h326v-1066q0 -67 42.5 -108.5t100.5 -41.5q59 0 101.5 41.5t42.5 108.5v1066h325q50 0 80 34t30 80q0 45 -30.5 79.5t-79.5 34.5h-938q-50 0 -80.5 -34.5t-30.5 -80.5zM379 -611q0 -30 25 -31h90h3q38 0 53 43l161 443q3 12 3 18 q0 35 -37 38h-148q-64 -2 -73 -56l-76 -443q-1 -3 -1 -12z" />
<glyph unicode="&#x21b;" horiz-adv-x="790" d="M22 915q0 -39 23.5 -62.5t66.5 -23.5h97v-517q0 -155 76.5 -237.5t212.5 -83.5h22q36 0 58 1t52.5 3.5t48.5 9.5t35.5 18t25.5 29t8 42q0 38 -24 66t-65 28h-7l-71 -4h-11q-61 0 -85 47t-24 143v455h160q43 0 65 22t22 60q0 39 -22 62.5t-64 23.5h-161v255q0 58 -24.5 87 t-68.5 29q-55 0 -86.5 -34.5t-37.5 -88.5l-30 -248h-105q-43 0 -65 -22.5t-22 -59.5zM249 -612q0 -30 25 -31h90h3q38 0 53 43l161 443q3 12 3 18q0 35 -37 38h-148q-64 -2 -73 -56l-76 -443q-1 -3 -1 -12z" />
<glyph unicode="&#x2c6;" horiz-adv-x="569" d="M-38 1194q0 -29 21 -48t52 -19q46 0 93 58l156 203l155 -205q37 -55 89 -55q30 0 51.5 19.5t21.5 48.5q0 28 -27 66l-185 244q-47 60 -106 60q-57 0 -106 -60l-189 -248q-26 -37 -26 -64z" />
<glyph unicode="&#x2da;" horiz-adv-x="569" d="M72 1390q0 -92 59 -150t152 -58q92 0 151 58.5t59 149.5t-59 149.5t-151 58.5q-93 0 -152 -58t-59 -150zM179 1390q0 44 29 72.5t75 28.5q45 0 74.5 -28.5t29.5 -72.5t-29.5 -72t-74.5 -28q-46 0 -75 28t-29 72z" />
<glyph unicode="&#x2dc;" horiz-adv-x="569" d="M-50 1256q0 -26 16.5 -40.5t41.5 -14.5q46 0 69 39q34 55 73 55q28 0 74 -23.5t98.5 -47t96.5 -23.5q77 0 129.5 51.5t58.5 138.5q0 21 -13 35t-31 15q-7 13 -23 13q-22 -5 -39.5 -21t-26.5 -32t-23 -29t-30 -13q-27 0 -73 23t-101 46t-104 23q-157 0 -191 -182 q-2 -8 -2 -13z" />
<glyph unicode="&#x394;" horiz-adv-x="1321" d="M22 0h1277l-490 1373q-19 45 -61 68.5t-91 23.5q-50 0 -91.5 -24.5t-55.5 -67.5zM296 150l358 1064l368 -1064h-726z" />
<glyph unicode="&#x3a3;" horiz-adv-x="1412" d="M144 1268q0 -97 98 -194l471 -451l-471 -464q-86 -86 -86 -185q0 -76 53 -126.5t141 -50.5l812 1q53 0 83 39t30 92t-29.5 91.5t-83.5 38.5h-732l444 412q86 81 86 155t-86 153l-443 406h731q54 0 83.5 38t29.5 91t-30 92t-83 39h-805q-93 0 -153 -50t-60 -127z" />
<glyph unicode="&#x3a9;" horiz-adv-x="1605" d="M97 946q0 -314 336 -757h-251q-38 0 -59.5 -28t-21.5 -66q0 -39 21.5 -67t59.5 -28h505q-49 83 -94.5 175t-92 205t-74.5 229.5t-28 211.5q0 81 21 144.5t66 113t122.5 76t184.5 26.5q208 0 301.5 -96.5t93.5 -263.5q0 -95 -28 -210.5t-74.5 -228.5t-92 -204.5 t-94.5 -177.5h505q38 0 59 28t21 67q0 38 -21 66t-59 28h-251q151 186 243.5 391t92.5 366q0 55 -8.5 104.5t-30 102t-55 96.5t-88.5 84t-125.5 67.5t-170 43.5t-218.5 16q-133 0 -242 -21t-183 -59.5t-128 -87t-84.5 -108t-44 -117.5t-13.5 -121z" />
<glyph unicode="&#x3bc;" d="M124 -119q0 -168 126 -168q63 0 95 46t32 122v621h-253v-621zM124 371q0 -95 29.5 -170t80.5 -120.5t114.5 -69t135.5 -23.5q237 0 327 172v-37q0 -59 35 -91t89 -32q55 0 91 33t36 93v738q0 66 -35 102.5t-90 36.5t-90.5 -36.5t-35.5 -102.5v-420q0 -127 -73.5 -206 t-174.5 -79q-82 0 -135 54.5t-53 157.5v493q0 66 -35 102.5t-88 36.5q-56 0 -92 -36.5t-36 -102.5v-493z" />
<glyph unicode="&#x3c0;" horiz-adv-x="1305" d="M101 989q0 -44 28.5 -72t79.5 -28h83q0 -351 -163 -777q-7 -18 -7 -37q0 -42 37 -68.5t87 -26.5q45 0 84 23.5t58 71.5q49 118 87 356.5t42 457.5h313v-381q0 -214 12.5 -325.5t42 -158.5t86.5 -47q20 0 31 2q67 9 93.5 33t26.5 69q0 32 -15.5 100t-31 163t-15.5 193 l-1 352h87q44 0 68.5 28t24.5 72q0 43 -24.5 69.5t-68.5 26.5h-940q-50 0 -77.5 -28t-27.5 -68z" />
<glyph unicode="&#x2000;" horiz-adv-x="1033" />
<glyph unicode="&#x2001;" horiz-adv-x="2067" />
<glyph unicode="&#x2002;" horiz-adv-x="1033" />
<glyph unicode="&#x2003;" horiz-adv-x="2067" />
<glyph unicode="&#x2004;" horiz-adv-x="689" />
<glyph unicode="&#x2005;" horiz-adv-x="516" />
<glyph unicode="&#x2006;" horiz-adv-x="344" />
<glyph unicode="&#x2007;" horiz-adv-x="344" />
<glyph unicode="&#x2008;" horiz-adv-x="258" />
<glyph unicode="&#x2009;" horiz-adv-x="413" />
<glyph unicode="&#x200a;" horiz-adv-x="114" />
<glyph unicode="&#x2010;" horiz-adv-x="678" d="M37 533q0 -42 28.5 -70t70.5 -28h401q44 0 74 28t30 70q0 43 -29 70.5t-75 27.5h-396q-46 0 -75 -27.5t-29 -70.5z" />
<glyph unicode="&#x2011;" horiz-adv-x="678" d="M37 533q0 -42 28.5 -70t70.5 -28h401q44 0 74 28t30 70q0 43 -29 70.5t-75 27.5h-396q-46 0 -75 -27.5t-29 -70.5z" />
<glyph unicode="&#x2012;" horiz-adv-x="678" d="M37 533q0 -42 28.5 -70t70.5 -28h401q44 0 74 28t30 70q0 43 -29 70.5t-75 27.5h-396q-46 0 -75 -27.5t-29 -70.5z" />
<glyph unicode="&#x2013;" horiz-adv-x="1024" d="M1 534q0 -42 25 -72t68 -30h827q49 0 74.5 28t25.5 73q0 47 -27 74t-73 27h-819q-48 0 -74.5 -28t-26.5 -72z" />
<glyph unicode="&#x2014;" horiz-adv-x="2048" d="M1 534q0 -42 24 -72t67 -30h1848q50 0 78 27t28 74q0 45 -26 73t-73 28h-1840q-49 0 -77.5 -27t-28.5 -73z" />
<glyph unicode="&#x2018;" horiz-adv-x="622" d="M105 912q0 -38 37 -38h160q63 0 73 56l84 479q1 3 1 12q0 31 -25 31h-90q-41 0 -56 -43l-181 -479q-3 -12 -3 -18z" />
<glyph unicode="&#x2019;" horiz-adv-x="622" d="M136 905q0 -31 25 -31h90q41 0 56 43l181 479q3 12 3 18q0 38 -37 38h-160q-63 0 -73 -56l-84 -479q-1 -3 -1 -12z" />
<glyph unicode="&#x201a;" horiz-adv-x="622" d="M136 -288q0 -30 25 -31h90q22 0 34.5 9.5t21.5 33.5l181 480q3 12 3 18q0 38 -37 38h-160q-63 0 -73 -56l-84 -480q-1 -3 -1 -12z" />
<glyph unicode="&#x201c;" horiz-adv-x="1164" d="M151 912q0 -38 37 -38h160q63 0 73 56l84 479q7 43 -24 43h-90q-41 0 -56 -43l-181 -479q-3 -12 -3 -18zM598 912q0 -38 37 -38h160q63 0 73 56l84 479q1 3 1 12q0 31 -25 31h-90q-41 0 -56 -43l-181 -479q-3 -12 -3 -18z" />
<glyph unicode="&#x201d;" horiz-adv-x="1164" d="M195 905q0 -30 25 -31h90h3q38 0 53 43l181 479q3 12 3 18q0 37 -37 38h-160q-64 -2 -73 -56l-84 -479q-1 -3 -1 -12zM633 905q0 -31 25 -31h90h3q38 0 53 43l181 479q3 12 3 18q0 37 -37 38h-160q-64 -2 -73 -56l-84 -479q-1 -3 -1 -12z" />
<glyph unicode="&#x201e;" horiz-adv-x="1164" d="M202 -248q0 -30 25 -31h90h3q38 0 53 43l181 480q3 12 3 18q0 37 -37 38h-160q-64 -2 -73 -56l-84 -480q-1 -3 -1 -12zM639 -248q0 -31 25 -31h90h3q38 0 53 43l181 480q3 12 3 18q0 37 -37 38h-160q-64 -2 -73 -56l-84 -480q-1 -3 -1 -12z" />
<glyph unicode="&#x2022;" horiz-adv-x="1024" d="M142 719q0 -148 108.5 -253.5t260.5 -105.5q153 0 262 106t109 253q0 151 -108.5 256t-262.5 105q-153 0 -261 -106.5t-108 -254.5z" />
<glyph unicode="&#x2026;" horiz-adv-x="1870" d="M167 137q0 -59 41 -100t103 -41t103 41.5t41 99.5q0 60 -42 100t-102 40q-63 0 -103.5 -41.5t-40.5 -98.5zM790 137q0 -59 41 -100t103 -41q64 0 104.5 41t40.5 100q0 61 -42.5 100.5t-102.5 39.5q-63 0 -103.5 -41.5t-40.5 -98.5zM1414 137q0 -59 40.5 -100t103.5 -41 q62 0 103 41.5t41 99.5q0 60 -42 100t-102 40q-63 0 -103.5 -41.5t-40.5 -98.5z" />
<glyph unicode="&#x202f;" horiz-adv-x="413" />
<glyph unicode="&#x2039;" horiz-adv-x="622" d="M83 535l236 -412q41 -77 102 -77q37 0 64 24t27 60q0 20 -9 40l-167 365l166 358q10 23 10 45q0 35 -27 59.5t-63 24.5q-60 0 -100 -67z" />
<glyph unicode="&#x203a;" horiz-adv-x="622" d="M112 131q0 -37 27 -61t64 -24q61 0 104 78l235 411l-235 410q-44 77 -105 77q-37 0 -63.5 -24.5t-26.5 -60.5q0 -21 10 -44l166 -358l-166 -360q-10 -23 -10 -44z" />
<glyph unicode="&#x205f;" horiz-adv-x="516" />
<glyph unicode="&#x20ac;" horiz-adv-x="1440" d="M16 562q0 -26 14.5 -44.5t41.5 -18.5h133q59 -243 237.5 -384t423.5 -141q252 0 427 117q56 39 56 101q0 44 -28.5 78t-69.5 34q-21 0 -42 -11q-160 -87 -298 -87q-154 0 -255.5 75t-143.5 218h456q28 0 43 18.5t15 43.5q0 26 -16 45.5t-45 19.5h-478q-5 48 -5 101 q0 31 2 61h484q28 0 43 18.5t15 43.5q0 26 -16 45t-45 19h-465q35 169 139 252.5t266 83.5q39 0 75 -5t68 -14.5t52.5 -17t49 -20.5t36.5 -16q21 -8 38 -8q45 0 78 36t33 82q0 66 -69 104q-184 92 -375 92q-174 0 -317.5 -67t-241.5 -196.5t-133 -305.5h-127q-26 0 -41 -19 t-15 -45q0 -25 14.5 -43.5t41.5 -18.5h110q-2 -34 -2 -68q0 -48 4 -94h-112q-26 0 -41 -19t-15 -45z" />
<glyph unicode="&#x2122;" horiz-adv-x="1968" d="M66 1343q0 -28 19 -45.5t51 -17.5h158v-538q0 -44 24 -68.5t61 -24.5q36 0 60.5 25.5t24.5 67.5v538h156q34 0 52 17t18 45t-19 45t-51 17h-490q-30 0 -47 -18t-17 -43zM839 743q0 -45 23 -69.5t58 -24.5t58 25.5t23 68.5v444l210 -468q23 -65 77 -65q27 0 49 19t33 51 l208 463v-444q0 -45 22.5 -69.5t57.5 -24.5t58.5 25.5t23.5 68.5v512q0 72 -35 110t-89 38q-41 0 -76.5 -28.5t-56.5 -79.5l-193 -425l-193 425q-21 53 -57 81t-76 28q-56 0 -90.5 -42.5t-34.5 -112.5v-506z" />
<glyph unicode="&#x25fc;" horiz-adv-x="1010" d="M0 0v1010h1010v-1010h-1010z" />
</font>
</defs>
</svg>
